<svg width="24" height="24" viewBox="0 0 24 24" fill="none" xmlns="http://www.w3.org/2000/svg">
<g clip-path="url(#clip0_891_44906)">
<path d="M2.67982 22.8337H2V23.5001H19.7116V22.8337H19.3286V19.6518C19.3286 19.5912 19.304 19.5331 19.2602 19.4903C19.2164 19.4475 19.1569 19.4234 19.095 19.4234H16.4657C16.4038 19.4234 16.3443 19.4475 16.3005 19.4903C16.2567 19.5331 16.2321 19.5912 16.2321 19.6518V22.8337H11.2819V18.3247C11.2814 18.2441 11.2483 18.167 11.1898 18.1102C11.1313 18.0534 11.0522 18.0215 10.9697 18.0215H5.81846C5.73601 18.0215 5.6569 18.0534 5.59842 18.1102C5.53993 18.167 5.50683 18.2441 5.50632 18.3247V22.8337H2V0.986735C2.01075 0.862752 2.06643 0.746593 2.15703 0.65918V0.65918C2.25838 0.559302 2.3961 0.502764 2.54002 0.501953H14.2424C14.3137 0.502151 14.3843 0.516146 14.45 0.543131C14.5158 0.570117 14.5754 0.609558 14.6254 0.65918L14.6503 0.683512C14.7393 0.780807 14.7884 0.906778 14.7882 1.03727V6.9707H21.5327C21.5928 6.9707 21.6524 6.98227 21.7079 7.00475C21.7634 7.02724 21.8139 7.06019 21.8564 7.10173V7.10173C21.8989 7.14286 21.9327 7.19184 21.9557 7.24581C21.9787 7.29979 21.9905 7.3577 21.9904 7.41618V23.1931C21.9904 23.274 21.9575 23.3516 21.899 23.4089C21.8405 23.4661 21.7611 23.4982 21.6783 23.4982H19.7116V22.8319H21.3412V7.61271H14.7901V22.8375H14.1084V1.16642H2.67982V22.8337ZM18.869 22.8337H16.6993V19.8726H18.869V22.8337ZM18.3635 8.92293H20.0506C20.064 8.92293 20.0754 8.94165 20.0754 8.96411V10.0329C20.0754 10.0516 20.064 10.0722 20.0506 10.0722H18.3635C18.3501 10.0722 18.3386 10.0553 18.3386 10.0329V8.96411C18.3386 8.94165 18.3501 8.92293 18.3635 8.92293ZM18.3635 16.335H20.0506C20.064 16.335 20.0754 16.3538 20.0754 16.3743V17.4431C20.0754 17.4637 20.064 17.4843 20.0506 17.4843H18.3635C18.3501 17.4843 18.3386 17.4656 18.3386 17.4431V16.3743C18.3386 16.3538 18.3501 16.335 18.3635 16.335V16.335ZM15.5197 16.335H17.2049C17.2202 16.335 17.2317 16.3538 17.2317 16.3743V17.4431C17.2317 17.4637 17.2202 17.4843 17.2049 17.4843H15.5197C15.5044 17.4843 15.4929 17.4656 15.4929 17.4431V16.3743C15.4929 16.3538 15.5044 16.335 15.5197 16.335V16.335ZM18.3635 13.8643H20.0506C20.064 13.8643 20.0754 13.8831 20.0754 13.9055V14.9743C20.0754 14.9949 20.064 15.0155 20.0506 15.0155H18.3635C18.3501 15.0155 18.3386 14.9967 18.3386 14.9743V13.9055C18.3386 13.8812 18.3501 13.8643 18.3635 13.8643ZM18.3635 11.3936H20.0506C20.064 11.3936 20.0754 11.4124 20.0754 11.4348V12.5036C20.0754 12.5242 20.064 12.5448 20.0506 12.5448H18.3635C18.3501 12.5448 18.3386 12.526 18.3386 12.5036V11.4348C18.3386 11.4124 18.3501 11.3936 18.3635 11.3936ZM15.5197 8.92293H17.2049C17.2202 8.92293 17.2317 8.94165 17.2317 8.96411V10.0329C17.2317 10.0516 17.2202 10.0722 17.2049 10.0722H15.5197C15.5044 10.0722 15.4929 10.0553 15.4929 10.0329V8.96411C15.4929 8.94165 15.5044 8.92293 15.5197 8.92293ZM15.5197 13.8643H17.2049C17.2202 13.8643 17.2317 13.8831 17.2317 13.9055V14.9743C17.2317 14.9949 17.2202 15.0155 17.2049 15.0155H15.5197C15.5044 15.0155 15.4929 14.9967 15.4929 14.9743V13.9055C15.4929 13.8812 15.5044 13.8643 15.5197 13.8643ZM15.5197 11.3936H17.2049C17.2202 11.3936 17.2317 11.4124 17.2317 11.4348V12.5036C17.2317 12.5242 17.2202 12.5448 17.2049 12.5448H15.5197C15.5044 12.5448 15.4929 12.526 15.4929 12.5036V11.4348C15.4929 11.4124 15.5044 11.3936 15.5197 11.3936ZM10.6576 22.8337H6.1306V18.6298H10.6576V22.8337ZM4.32286 2.84351H6.15741C6.17097 2.84397 6.18385 2.84945 6.19344 2.85882C6.20304 2.8682 6.20864 2.88079 6.20912 2.89404V4.68905C6.20864 4.7023 6.20304 4.71489 6.19344 4.72427C6.18385 4.73364 6.17097 4.73912 6.15741 4.73958H4.32286C4.3093 4.73912 4.29643 4.73364 4.28683 4.72427C4.27724 4.71489 4.27164 4.7023 4.27116 4.68905V2.89404C4.27164 2.88079 4.27724 2.8682 4.28683 2.85882C4.29643 2.84945 4.3093 2.84397 4.32286 2.84351ZM10.6308 2.84351H12.4653C12.4789 2.84397 12.4918 2.84945 12.5014 2.85882C12.511 2.8682 12.5166 2.88079 12.517 2.89404V4.68905C12.5166 4.7023 12.511 4.71489 12.5014 4.72427C12.4918 4.73364 12.4789 4.73912 12.4653 4.73958H10.6308C10.6172 4.73912 10.6044 4.73364 10.5948 4.72427C10.5852 4.71489 10.5796 4.7023 10.5791 4.68905V2.89404C10.5796 2.88079 10.5852 2.8682 10.5948 2.85882C10.6044 2.84945 10.6172 2.84397 10.6308 2.84351V2.84351ZM7.47683 2.84351H9.31137C9.32494 2.84397 9.33781 2.84945 9.34741 2.85882C9.357 2.8682 9.3626 2.88079 9.36308 2.89404V4.68905C9.3626 4.7023 9.357 4.71489 9.34741 4.72427C9.33781 4.73364 9.32494 4.73912 9.31137 4.73958H7.47683C7.46327 4.73912 7.45039 4.73364 7.4408 4.72427C7.4312 4.71489 7.4256 4.7023 7.42512 4.68905V2.89404C7.4256 2.88079 7.4312 2.8682 7.4408 2.85882C7.45039 2.84945 7.46327 2.84397 7.47683 2.84351V2.84351ZM4.32286 6.72925H6.15741C6.17097 6.72971 6.18385 6.73519 6.19344 6.74457C6.20304 6.75395 6.20864 6.76653 6.20912 6.77979V8.57479C6.20864 8.58804 6.20304 8.60063 6.19344 8.61001C6.18385 8.61939 6.17097 8.62486 6.15741 8.62533H4.32286C4.3093 8.62486 4.29643 8.61939 4.28683 8.61001C4.27724 8.60063 4.27164 8.58804 4.27116 8.57479V6.77979C4.27164 6.76653 4.27724 6.75395 4.28683 6.74457C4.29643 6.73519 4.3093 6.72971 4.32286 6.72925ZM10.6308 6.72925H12.4653C12.4789 6.72971 12.4918 6.73519 12.5014 6.74457C12.511 6.75395 12.5166 6.76653 12.517 6.77979V8.57479C12.5166 8.58804 12.511 8.60063 12.5014 8.61001C12.4918 8.61939 12.4789 8.62486 12.4653 8.62533H10.6308C10.6172 8.62486 10.6044 8.61939 10.5948 8.61001C10.5852 8.60063 10.5796 8.58804 10.5791 8.57479V6.77979C10.5796 6.76653 10.5852 6.75395 10.5948 6.74457C10.6044 6.73519 10.6172 6.72971 10.6308 6.72925ZM7.47683 6.72925H9.31137C9.32494 6.72971 9.33781 6.73519 9.34741 6.74457C9.357 6.75395 9.3626 6.76653 9.36308 6.77979V8.57479C9.3626 8.58804 9.357 8.60063 9.34741 8.61001C9.33781 8.61939 9.32494 8.62486 9.31137 8.62533H7.47683C7.46327 8.62486 7.45039 8.61939 7.4408 8.61001C7.4312 8.60063 7.4256 8.58804 7.42512 8.57479V6.77979C7.4256 6.76653 7.4312 6.75395 7.4408 6.74457C7.45039 6.73519 7.46327 6.72971 7.47683 6.72925ZM4.32286 14.5007H6.15741C6.17112 14.5007 6.18427 14.5061 6.19397 14.5155C6.20367 14.525 6.20912 14.5379 6.20912 14.5513V16.3444C6.20912 16.3578 6.20367 16.3707 6.19397 16.3801C6.18427 16.3896 6.17112 16.3949 6.15741 16.3949H4.32286C4.30915 16.3949 4.296 16.3896 4.2863 16.3801C4.27661 16.3707 4.27116 16.3578 4.27116 16.3444V14.5513C4.27116 14.5379 4.27661 14.525 4.2863 14.5155C4.296 14.5061 4.30915 14.5007 4.32286 14.5007V14.5007ZM10.6308 14.5007H12.4653C12.4791 14.5007 12.4922 14.5061 12.5019 14.5155C12.5116 14.525 12.517 14.5379 12.517 14.5513V16.3444C12.517 16.3578 12.5116 16.3707 12.5019 16.3801C12.4922 16.3896 12.4791 16.3949 12.4653 16.3949H10.6308C10.6171 16.3949 10.6039 16.3896 10.5942 16.3801C10.5845 16.3707 10.5791 16.3578 10.5791 16.3444V14.5513C10.5791 14.5379 10.5845 14.525 10.5942 14.5155C10.6039 14.5061 10.6171 14.5007 10.6308 14.5007V14.5007ZM7.47683 14.5007H9.31137C9.32509 14.5007 9.33824 14.5061 9.34794 14.5155C9.35763 14.525 9.36308 14.5379 9.36308 14.5513V16.3444C9.36308 16.3578 9.35763 16.3707 9.34794 16.3801C9.33824 16.3896 9.32509 16.3949 9.31137 16.3949H7.47683C7.46312 16.3949 7.44996 16.3896 7.44027 16.3801C7.43057 16.3707 7.42512 16.3578 7.42512 16.3444V14.5513C7.42512 14.5379 7.43057 14.525 7.44027 14.5155C7.44996 14.5061 7.46312 14.5007 7.47683 14.5007V14.5007ZM4.32286 10.6075H6.15741C6.17112 10.6075 6.18427 10.6128 6.19397 10.6223C6.20367 10.6318 6.20912 10.6446 6.20912 10.658V12.4605C6.20864 12.4738 6.20304 12.4864 6.19344 12.4958C6.18385 12.5051 6.17097 12.5106 6.15741 12.5111H4.32286C4.3093 12.5106 4.29643 12.5051 4.28683 12.4958C4.27724 12.4864 4.27164 12.4738 4.27116 12.4605V10.6655C4.27116 10.6521 4.27661 10.6393 4.2863 10.6298C4.296 10.6203 4.30915 10.615 4.32286 10.615V10.6075ZM10.6308 10.6075H12.4653C12.4791 10.6075 12.4922 10.6128 12.5019 10.6223C12.5116 10.6318 12.517 10.6446 12.517 10.658V12.4605C12.5166 12.4738 12.511 12.4864 12.5014 12.4958C12.4918 12.5051 12.4789 12.5106 12.4653 12.5111H10.6308C10.6172 12.5106 10.6044 12.5051 10.5948 12.4958C10.5852 12.4864 10.5796 12.4738 10.5791 12.4605V10.6655C10.5791 10.6521 10.5845 10.6393 10.5942 10.6298C10.6039 10.6203 10.6171 10.615 10.6308 10.615V10.6075ZM7.47683 10.6075H9.31137C9.32509 10.6075 9.33824 10.6128 9.34794 10.6223C9.35763 10.6318 9.36308 10.6446 9.36308 10.658V12.4605C9.3626 12.4738 9.357 12.4864 9.34741 12.4958C9.33781 12.5051 9.32494 12.5106 9.31137 12.5111H7.47683C7.46327 12.5106 7.45039 12.5051 7.4408 12.4958C7.4312 12.4864 7.4256 12.4738 7.42512 12.4605V10.6655C7.42401 10.6583 7.42453 10.6509 7.42662 10.6439C7.42872 10.6369 7.43235 10.6304 7.43727 10.6248C7.44218 10.6193 7.44827 10.6149 7.4551 10.6119C7.46193 10.6089 7.46934 10.6074 7.47683 10.6075Z" fill="#515151"/>
</g>
<defs>
<clipPath id="clip0_891_44906">
<rect width="20" height="23" fill="white" transform="translate(2 0.5)"/>
</clipPath>
</defs>
</svg>
