<svg width="24" height="24" viewBox="0 0 24 24" fill="none" xmlns="http://www.w3.org/2000/svg">
<path d="M18.2227 6.69531L15.3047 3.74219C14.9883 3.42578 14.5312 3.25 14.1094 3.25H6.9375C5.98828 3.25 5.25 4.02344 5.25 4.9375V19.5625C5.25 20.5117 5.98828 21.25 6.9375 21.25H17.0625C17.9766 21.25 18.75 20.5117 18.75 19.5625V7.89062C18.75 7.46875 18.5391 7.01172 18.2227 6.69531ZM16.9219 7.75H14.25V5.07812L16.9219 7.75ZM6.9375 19.5625V4.9375H12.5625V8.59375C12.5625 9.08594 12.9141 9.4375 13.4062 9.4375H17.0625V19.5625H6.9375ZM15.7266 14.5352C15.3047 14.1133 14.0742 14.2188 13.4414 14.2891C12.8438 13.9375 12.457 13.4102 12.1758 12.6719C12.2812 12.1094 12.5273 11.2305 12.3516 10.7031C12.2109 9.78906 11.0156 9.85938 10.8398 10.4922C10.6992 11.0547 10.8398 11.8633 11.0859 12.8477C10.7344 13.6914 10.207 14.8164 9.85547 15.4844C9.15234 15.8359 8.20312 16.3984 8.0625 17.1016C7.95703 17.6641 8.97656 19.0352 10.7344 16.0117C11.5078 15.7305 12.3867 15.4141 13.125 15.2734C13.793 15.6602 14.5664 15.8711 15.0938 15.8711C16.0078 15.8711 16.0781 14.8867 15.7266 14.5352ZM8.76562 17.2773C8.94141 16.7852 9.60938 16.2227 9.82031 16.0469C9.15234 17.1016 8.76562 17.2773 8.76562 17.2773ZM11.6133 10.5625C11.8945 10.5625 11.8594 11.6875 11.6836 12.0039C11.543 11.5117 11.543 10.5625 11.6133 10.5625ZM10.7695 15.3789C11.1211 14.7812 11.4023 14.0781 11.6484 13.4453C11.9297 13.9727 12.2812 14.3945 12.7031 14.6758C11.9648 14.8516 11.332 15.1328 10.7695 15.3789ZM15.375 15.2031C15.375 15.2031 15.1992 15.4141 14.0742 14.9219C15.3047 14.8164 15.5156 15.0977 15.375 15.2031Z" fill="#00CEC3"/>
</svg>
