<svg width="29" height="28" viewBox="0 0 29 28" fill="none" xmlns="http://www.w3.org/2000/svg">
<path d="M9.91699 11.666C10.8835 11.666 11.667 10.8825 11.667 9.91602C11.667 8.94952 10.8835 8.16602 9.91699 8.16602C8.95049 8.16602 8.16699 8.94952 8.16699 9.91602C8.16699 10.8825 8.95049 11.666 9.91699 11.666Z" stroke="#1A97F5" stroke-width="1.5" stroke-linecap="round" stroke-linejoin="round"/>
<path fill-rule="evenodd" clip-rule="evenodd" d="M5.83333 4.5C5.09695 4.5 4.5 5.09695 4.5 5.83333V22.1667C4.5 22.7769 4.90991 23.2913 5.4694 23.4497L17.9595 10.9596C18.1471 10.7721 18.4014 10.6667 18.6666 10.6667C18.9319 10.6667 19.1862 10.7721 19.3737 10.9596L23.5 15.0858V5.83333C23.5 5.09695 22.903 4.5 22.1667 4.5H5.83333ZM23.9697 15.5555H25.5V5.83333C25.5 3.99238 24.0076 2.5 22.1667 2.5H5.83333C3.99238 2.5 2.5 3.99238 2.5 5.83333V22.1667C2.5 24.0044 3.98716 25.4948 5.82366 25.5C5.82957 25.5 5.83548 25.5 5.84138 25.5H15.2962V23.5H8.24755L18.6666 13.0809L21.1414 15.5556H23.9698L23.9697 15.5555Z" fill="#1A97F5"/>
<path d="M16.333 18.1484V21.2595H19.4441" stroke="#1A97F5" stroke-width="2" stroke-linecap="round" stroke-linejoin="round"/>
<path d="M17.6997 23.6741C18.0527 24.6814 18.7218 25.5461 19.6063 26.1378C20.4907 26.7296 21.5424 27.0164 22.6031 26.955C23.6638 26.8937 24.6759 26.4875 25.4869 25.7976C26.298 25.1078 26.864 24.1716 27.0997 23.1303C27.3355 22.0889 27.2282 20.9988 26.794 20.0241C26.3597 19.0494 25.6222 18.2429 24.6924 17.7262C23.7626 17.2095 22.6909 17.0106 21.6388 17.1594C20.5868 17.3082 19.6113 17.7966 18.8594 18.5512L16.333 20.9375" stroke="#1A97F5" stroke-width="2" stroke-linecap="round" stroke-linejoin="round"/>
</svg>
