<svg width="24" height="25" viewBox="0 0 24 25" fill="none" xmlns="http://www.w3.org/2000/svg">
<g clip-path="url(#clip0_690:27296)">
<path fill-rule="evenodd" clip-rule="evenodd" d="M4.29289 4.79289C4.48043 4.60536 4.73478 4.5 5 4.5H6V8.5C6 9.05228 6.44772 9.5 7 9.5H15C15.5523 9.5 16 9.05228 16 8.5C16 7.94772 15.5523 7.5 15 7.5H8V4.5H15.5858L20 8.91421V12.752C20.7095 12.9347 21.381 13.2122 22 13.5703V8.5C22 8.23478 21.8946 7.98043 21.7071 7.79289L16.7071 2.79289C16.5196 2.60536 16.2652 2.5 16 2.5H7H5C4.20435 2.5 3.44129 2.81607 2.87868 3.37868C2.31607 3.94129 2 4.70435 2 5.5V19.5C2 20.2957 2.31607 21.0587 2.87868 21.6213C3.44129 22.1839 4.20435 22.5 5 22.5H7H10.252C10.0875 21.8608 10 21.1906 10 20.5H8V14.5H12.7084C13.945 13.4086 15.5216 12.6934 17.259 12.5339C17.1764 12.5118 17.0896 12.5 17 12.5H7C6.44772 12.5 6 12.9477 6 13.5V20.5H5C4.73478 20.5 4.48043 20.3946 4.29289 20.2071C4.10536 20.0196 4 19.7652 4 19.5V5.5C4 5.23478 4.10536 4.98043 4.29289 4.79289Z" fill="#C3C3C3"/>
<path opacity="0.6" d="M23 15.5V18.5H20" stroke="#1A97F5" stroke-opacity="0.9" stroke-width="1.5" stroke-linecap="round" stroke-linejoin="round"/>
<path opacity="0.6" d="M13 23.5V20.5H16" stroke="#1A97F5" stroke-opacity="0.9" stroke-width="1.5" stroke-linecap="round" stroke-linejoin="round"/>
<path opacity="0.6" d="M14.1409 18.1663C14.3714 17.5292 14.7632 16.9595 15.2798 16.5105C15.7963 16.0615 16.4207 15.7478 17.0947 15.5986C17.7687 15.4495 18.4703 15.4698 19.1342 15.6576C19.798 15.8454 20.4024 16.1946 20.8909 16.6726L23 18.6109M13 20.3891L15.1091 22.3274C15.5976 22.8054 16.202 23.1546 16.8658 23.3424C17.5297 23.5302 18.2313 23.5505 18.9053 23.4014C19.5793 23.2522 20.2037 22.9385 20.7202 22.4895C21.2368 22.0405 21.6286 21.4708 21.8591 20.8337" stroke="#1A97F5" stroke-opacity="0.9" stroke-width="1.5" stroke-linecap="round" stroke-linejoin="round"/>
</g>
<defs>
<clipPath id="clip0_690:27296">
<rect width="24" height="24" fill="white" transform="translate(0 0.5)"/>
</clipPath>
</defs>
</svg>
