<svg width="24" height="24" viewBox="0 0 24 24" fill="none" xmlns="http://www.w3.org/2000/svg">
<mask id="path-1-inside-1_1249_45100" fill="white">
<path d="M6 2L7.875 3L9.75 2L11.625 3L13.5 2L15.375 3L17.25 2L19.125 3L21 2V21C21 21.5523 20.5523 22 20 22H17H6C4.34315 22 3 20.6569 3 19V16H6V12V2Z"/>
</mask>
<path d="M6 2L6.94118 0.235294L4 -1.33333V2H6ZM21 2H23V-1.33333L20.0588 0.235294L21 2ZM3 16V14H1V16H3ZM6 16V18H8V16H6ZM13.5 2L14.4412 0.235294L13.5 -0.266667L12.5588 0.235294L13.5 2ZM9.75 2L10.6912 0.235294L9.75 -0.266667L8.80882 0.235294L9.75 2ZM7.875 3L6.93382 4.76471L7.875 5.26667L8.81618 4.76471L7.875 3ZM11.625 3L10.6838 4.76471L11.625 5.26667L12.5662 4.76471L11.625 3ZM17.25 2L18.1912 0.235294L17.25 -0.266667L16.3088 0.235294L17.25 2ZM19.125 3L18.1838 4.76471L19.125 5.26667L20.0662 4.76471L19.125 3ZM15.375 3L14.4338 4.76471L15.375 5.26667L16.3162 4.76471L15.375 3ZM19 2V21H23V2H19ZM8 12V2H4V12H8ZM5 19V16H1V19H5ZM3 18H6V14H3V18ZM8 16V12H4V16H8ZM20 20H17V24H20V20ZM17 20H6V24H17V20ZM5.05882 3.76471L6.93382 4.76471L8.81618 1.23529L6.94118 0.235294L5.05882 3.76471ZM8.81618 4.76471L10.6912 3.76471L8.80882 0.235294L6.93382 1.23529L8.81618 4.76471ZM8.80882 3.76471L10.6838 4.76471L12.5662 1.23529L10.6912 0.235294L8.80882 3.76471ZM12.5662 4.76471L14.4412 3.76471L12.5588 0.235294L10.6838 1.23529L12.5662 4.76471ZM16.3088 3.76471L18.1838 4.76471L20.0662 1.23529L18.1912 0.235294L16.3088 3.76471ZM20.0662 4.76471L21.9412 3.76471L20.0588 0.235294L18.1838 1.23529L20.0662 4.76471ZM12.5588 3.76471L14.4338 4.76471L16.3162 1.23529L14.4412 0.235294L12.5588 3.76471ZM16.3162 4.76471L18.1912 3.76471L16.3088 0.235294L14.4338 1.23529L16.3162 4.76471ZM1 19C1 21.7614 3.23858 24 6 24V20C5.44772 20 5 19.5523 5 19H1ZM19 21C19 20.4477 19.4477 20 20 20V24C21.6569 24 23 22.6569 23 21H19Z" fill="#0DB4F7" mask="url(#path-1-inside-1_1249_45100)"/>
<path d="M11 8L16 13" stroke="#E85858" stroke-width="1.5" stroke-linecap="round" stroke-linejoin="round"/>
<path d="M16 8L11 13" stroke="#E85858" stroke-width="1.5" stroke-linecap="round" stroke-linejoin="round"/>
<mask id="path-5-inside-2_1249_45100" fill="white">
<path d="M3 16H17V22H6C4.34315 22 3 20.6569 3 19V16Z"/>
</mask>
<path d="M3 16V14H1V16H3ZM17 16H19V14H17V16ZM17 22V24H19V22H17ZM3 18H17V14H3V18ZM15 16V22H19V16H15ZM17 20H6V24H17V20ZM5 19V16H1V19H5ZM6 20C5.44772 20 5 19.5523 5 19H1C1 21.7614 3.23858 24 6 24V20Z" fill="#0DB4F7" mask="url(#path-5-inside-2_1249_45100)"/>
</svg>
