<svg width="24" height="24" viewBox="0 0 24 24" fill="none" xmlns="http://www.w3.org/2000/svg">
<path d="M21 15C21 15.5304 20.7893 16.0391 20.4142 16.4142C20.0391 16.7893 19.5304 17 19 17H7L3 21V5C3 4.46957 3.21071 3.96086 3.58579 3.58579C3.96086 3.21071 4.46957 3 5 3H19C19.5304 3 20.0391 3.21071 20.4142 3.58579C20.7893 3.96086 21 4.46957 21 5V15Z" stroke="#0DB4F7" stroke-width="2" stroke-linecap="round" stroke-linejoin="round"/>
<path d="M6.82423 12.072C6.51623 12.072 6.24423 12.02 6.00823 11.916C5.77223 11.808 5.58623 11.656 5.45023 11.46C5.31423 11.26 5.24423 11.018 5.24023 10.734H6.05023C6.05823 10.93 6.12823 11.096 6.26023 11.232C6.39623 11.364 6.58223 11.43 6.81823 11.43C7.02223 11.43 7.18423 11.382 7.30423 11.286C7.42423 11.186 7.48423 11.054 7.48423 10.89C7.48423 10.718 7.43023 10.584 7.32223 10.488C7.21823 10.392 7.07823 10.314 6.90223 10.254C6.72623 10.194 6.53823 10.13 6.33823 10.062C6.01423 9.95003 5.76623 9.80603 5.59423 9.63003C5.42623 9.45403 5.34223 9.22003 5.34223 8.92803C5.33823 8.68003 5.39623 8.46803 5.51623 8.29203C5.64023 8.11203 5.80823 7.97403 6.02023 7.87803C6.23223 7.77803 6.47623 7.72803 6.75223 7.72803C7.03223 7.72803 7.27823 7.77803 7.49023 7.87803C7.70623 7.97803 7.87423 8.11803 7.99423 8.29803C8.11823 8.47803 8.18423 8.69203 8.19223 8.94003H7.37023C7.36623 8.79203 7.30823 8.66203 7.19623 8.55003C7.08823 8.43403 6.93623 8.37603 6.74023 8.37603C6.57223 8.37203 6.43023 8.41403 6.31423 8.50203C6.20223 8.58603 6.14623 8.71003 6.14623 8.87403C6.14623 9.01403 6.19023 9.12603 6.27823 9.21003C6.36623 9.29003 6.48623 9.35803 6.63823 9.41403C6.79023 9.47003 6.96423 9.53003 7.16023 9.59403C7.36823 9.66603 7.55823 9.75003 7.73023 9.84603C7.90223 9.94203 8.04023 10.07 8.14423 10.23C8.24823 10.386 8.30023 10.588 8.30023 10.836C8.30023 11.056 8.24423 11.26 8.13223 11.448C8.02023 11.636 7.85423 11.788 7.63423 11.904C7.41423 12.016 7.14423 12.072 6.82423 12.072Z" fill="#0DB4F7"/>
<path d="M9.75031 12V7.80003H10.6623L12.0003 10.464L13.3203 7.80003H14.2323V12H13.4643V9.10203L12.2943 11.4H11.6883L10.5183 9.10203V12H9.75031Z" fill="#0DB4F7"/>
<path d="M17.2612 12.072C16.9532 12.072 16.6812 12.02 16.4452 11.916C16.2092 11.808 16.0232 11.656 15.8872 11.46C15.7512 11.26 15.6812 11.018 15.6772 10.734H16.4872C16.4952 10.93 16.5652 11.096 16.6972 11.232C16.8332 11.364 17.0192 11.43 17.2552 11.43C17.4592 11.43 17.6212 11.382 17.7412 11.286C17.8612 11.186 17.9212 11.054 17.9212 10.89C17.9212 10.718 17.8672 10.584 17.7592 10.488C17.6552 10.392 17.5152 10.314 17.3392 10.254C17.1632 10.194 16.9752 10.13 16.7752 10.062C16.4512 9.95003 16.2032 9.80603 16.0312 9.63003C15.8632 9.45403 15.7792 9.22003 15.7792 8.92803C15.7752 8.68003 15.8332 8.46803 15.9532 8.29203C16.0772 8.11203 16.2452 7.97403 16.4572 7.87803C16.6692 7.77803 16.9132 7.72803 17.1892 7.72803C17.4692 7.72803 17.7152 7.77803 17.9272 7.87803C18.1432 7.97803 18.3112 8.11803 18.4312 8.29803C18.5552 8.47803 18.6212 8.69203 18.6292 8.94003H17.8072C17.8032 8.79203 17.7452 8.66203 17.6332 8.55003C17.5252 8.43403 17.3732 8.37603 17.1772 8.37603C17.0092 8.37203 16.8672 8.41403 16.7512 8.50203C16.6392 8.58603 16.5832 8.71003 16.5832 8.87403C16.5832 9.01403 16.6272 9.12603 16.7152 9.21003C16.8032 9.29003 16.9232 9.35803 17.0752 9.41403C17.2272 9.47003 17.4012 9.53003 17.5972 9.59403C17.8052 9.66603 17.9952 9.75003 18.1672 9.84603C18.3392 9.94203 18.4772 10.07 18.5812 10.23C18.6852 10.386 18.7372 10.588 18.7372 10.836C18.7372 11.056 18.6812 11.26 18.5692 11.448C18.4572 11.636 18.2912 11.788 18.0712 11.904C17.8512 12.016 17.5812 12.072 17.2612 12.072Z" fill="#0DB4F7"/>
<path fill-rule="evenodd" clip-rule="evenodd" d="M6.75202 7.87812C6.49425 7.87812 6.27275 7.92476 6.08401 8.01379L6.0819 8.01478C5.89321 8.10023 5.74725 8.221 5.63975 8.37692C5.54007 8.52326 5.48842 8.70357 5.492 8.92571L5.49204 8.92812C5.49204 9.18937 5.56611 9.38331 5.70193 9.52593C5.85248 9.67971 6.0772 9.81322 6.38675 9.92026C6.38684 9.92029 6.38665 9.92023 6.38675 9.92026L6.95042 10.1121C7.13978 10.1767 7.2995 10.2635 7.42274 10.377C7.56813 10.5068 7.63402 10.6847 7.63402 10.8901C7.63402 11.0961 7.55616 11.2713 7.40005 11.4014L7.39774 11.4033C7.24356 11.5266 7.0449 11.5801 6.81802 11.5801C6.55308 11.5801 6.32602 11.5052 6.15555 11.3398L6.15233 11.3366C6.0275 11.208 5.94885 11.0559 5.91637 10.8841H5.39955C5.42159 11.0759 5.48077 11.2384 5.57367 11.3752C5.69278 11.5466 5.85644 11.6816 6.06947 11.7793C6.28287 11.8731 6.53331 11.9221 6.82402 11.9221C7.12664 11.9221 7.37154 11.8692 7.56501 11.7709C7.76352 11.6661 7.90728 11.5323 8.00315 11.3714C8.10124 11.2067 8.15002 11.0293 8.15002 10.8361C8.15002 10.6083 8.10225 10.4379 8.01921 10.3133L8.01824 10.3119C7.92797 10.173 7.80833 10.0616 7.65691 9.9771C7.49376 9.88604 7.31234 9.80566 7.11218 9.7363C6.91538 9.67202 6.73998 9.61155 6.58616 9.55488C6.4222 9.49447 6.28355 9.41788 6.17712 9.32112L6.17442 9.31866C6.05221 9.20201 5.99602 9.04837 5.99602 8.87412C5.99602 8.67208 6.06747 8.49954 6.22402 8.38213C6.3707 8.27085 6.54606 8.22179 6.7418 8.22613C6.96714 8.22648 7.16163 8.29429 7.30394 8.44592C7.40351 8.54608 7.47041 8.66149 7.50106 8.79012H8.02797C8.00383 8.6343 7.95062 8.49954 7.87049 8.38322L7.8692 8.38134C7.76604 8.2266 7.62052 8.10384 7.427 8.01424L7.42603 8.01379C7.23756 7.92489 7.01414 7.87812 6.75202 7.87812ZM5.95708 7.74196C6.19208 7.63133 6.45822 7.57812 6.75202 7.57812C7.0497 7.57812 7.31812 7.63129 7.55354 7.74224C7.79142 7.85246 7.98149 8.00932 8.11819 8.21397C8.2602 8.42052 8.33316 8.66297 8.34194 8.93529L8.34694 9.09012H7.22402L7.22007 8.94418C7.21719 8.83739 7.17689 8.74313 7.08995 8.65619L7.08616 8.6524C7.01302 8.57384 6.90494 8.52612 6.74002 8.52612H6.73645C6.59691 8.5228 6.48955 8.55724 6.40468 8.62163C6.33722 8.67222 6.29602 8.74817 6.29602 8.87412C6.29602 8.97906 6.3273 9.04917 6.38033 9.10042C6.44985 9.16318 6.55079 9.22213 6.68987 9.27337C6.83972 9.32858 7.0119 9.38797 7.20658 9.45153L7.20909 9.45236C7.42445 9.5269 7.62261 9.61439 7.80312 9.71515C7.99545 9.82249 8.15164 9.96687 8.26931 10.1476C8.39393 10.335 8.45002 10.5683 8.45002 10.8361C8.45002 11.083 8.38679 11.3135 8.26088 11.5249C8.13291 11.7397 7.94498 11.9097 7.70398 12.0368L7.70208 12.0378C7.45569 12.1632 7.1609 12.2221 6.82402 12.2221C6.49917 12.2221 6.20592 12.1673 5.94753 12.0534L5.94559 12.0525C5.68734 11.9344 5.47946 11.7657 5.32678 11.5456L5.32597 11.5445C5.17075 11.3162 5.09437 11.0444 5.09003 10.7362L5.08789 10.5841H6.19402L6.19989 10.728C6.20641 10.8878 6.26177 11.0178 6.36608 11.126C6.46753 11.2236 6.61203 11.2801 6.81802 11.2801C6.99833 11.2801 7.12337 11.238 7.20915 11.1699C7.29227 11.1002 7.33402 11.0116 7.33402 10.8901C7.33402 10.7521 7.29223 10.6623 7.22236 10.6002L7.22026 10.5984C7.13564 10.5203 7.01574 10.4514 6.85362 10.3961L6.28973 10.2041C5.95185 10.0873 5.68014 9.93287 5.48674 9.73496L5.48551 9.7337C5.28595 9.52465 5.19225 9.25118 5.19202 8.92934C5.18781 8.65611 5.2521 8.41293 5.39208 8.20762C5.53236 8.004 5.72239 7.84845 5.95708 7.74196ZM17.189 7.87812C16.9312 7.87812 16.7097 7.92476 16.521 8.01379L16.5189 8.01478C16.3302 8.10023 16.1842 8.22099 16.0767 8.3769C15.977 8.52324 15.9254 8.70357 15.929 8.92571L15.929 8.92812C15.929 9.18938 16.0031 9.38332 16.1389 9.52594C16.2894 9.67971 16.5142 9.81322 16.8237 9.92025C16.8238 9.92029 16.8236 9.92022 16.8237 9.92025L17.3874 10.1121C17.5767 10.1767 17.7364 10.2635 17.8597 10.377C18.0051 10.5068 18.071 10.6847 18.071 10.8901C18.071 11.0961 17.9931 11.2713 17.837 11.4014L17.8347 11.4033C17.6805 11.5266 17.4818 11.5801 17.255 11.5801C16.99 11.5801 16.763 11.5052 16.5925 11.3398L16.5893 11.3366C16.4645 11.208 16.3858 11.0559 16.3533 10.8841H15.8365C15.8585 11.0759 15.9177 11.2384 16.0106 11.3752C16.1297 11.5466 16.2934 11.6816 16.5064 11.7793C16.7198 11.8731 16.9703 11.9221 17.261 11.9221C17.5636 11.9221 17.8085 11.8692 18.002 11.7709C18.2005 11.6661 18.3442 11.5323 18.4401 11.3714C18.5382 11.2067 18.587 11.0293 18.587 10.8361C18.587 10.6083 18.5392 10.4379 18.4562 10.3133L18.4552 10.3119C18.3649 10.173 18.2453 10.0616 18.0939 9.9771C17.9307 9.88604 17.7493 9.80566 17.5491 9.7363C17.3523 9.67202 17.1769 9.61155 17.0231 9.55488C16.8591 9.49447 16.7205 9.41788 16.6141 9.32112L16.6114 9.31866C16.4892 9.20201 16.433 9.04837 16.433 8.87412C16.433 8.67208 16.5044 8.49954 16.661 8.38213C16.8075 8.2712 16.9833 8.2218 17.1788 8.22613C17.4041 8.22648 17.5986 8.29429 17.7409 8.44592C17.8405 8.54608 17.9074 8.66149 17.938 8.79012H18.4649C18.4408 8.6343 18.3876 8.49954 18.3074 8.38322L18.3061 8.38134C18.203 8.2266 18.0575 8.10384 17.864 8.01424L17.863 8.01379C17.6745 7.92489 17.4511 7.87812 17.189 7.87812ZM16.394 7.74196C16.629 7.63133 16.8952 7.57812 17.189 7.57812C17.4867 7.57812 17.7551 7.63129 17.9905 7.74224C18.2284 7.85247 18.4184 8.00932 18.5551 8.21397C18.5549 8.21366 18.5547 8.21334 18.5545 8.21303L18.431 8.29811L18.5558 8.21492C18.5556 8.2146 18.5554 8.21429 18.5551 8.21397C18.6972 8.42053 18.7701 8.66297 18.7789 8.93529L18.7839 9.09012H17.661L17.657 8.94418C17.6541 8.83739 17.6138 8.74313 17.5269 8.65619L17.5231 8.6524C17.45 8.57384 17.3419 8.52612 17.177 8.52612H17.1734C17.0339 8.5228 16.9265 8.55724 16.8416 8.62163C16.7742 8.67222 16.733 8.74817 16.733 8.87412C16.733 8.97906 16.7643 9.04917 16.8173 9.10041C16.8168 9.09999 16.8163 9.09956 16.8159 9.09913L16.715 9.21012L16.8185 9.10162C16.8181 9.10122 16.8177 9.10082 16.8173 9.10041C16.8868 9.16317 16.9877 9.22213 17.1268 9.27337C17.2767 9.32858 17.4489 9.38797 17.6435 9.45153L17.646 9.45236C17.8614 9.5269 18.0596 9.61439 18.2401 9.71515C18.4324 9.82249 18.5886 9.96687 18.7063 10.1476C18.8309 10.335 18.887 10.5683 18.887 10.8361C18.887 11.083 18.8237 11.3135 18.6978 11.5249C18.5699 11.7397 18.3819 11.9097 18.1409 12.0368L18.139 12.0378C17.8926 12.1632 17.5979 12.2221 17.261 12.2221C16.9361 12.2221 16.6429 12.1673 16.3845 12.0534L16.3825 12.0525C16.1243 11.9344 15.9164 11.7657 15.7637 11.5456L15.7629 11.5445C15.6077 11.3162 15.5313 11.0444 15.527 10.7362L15.5248 10.5841H16.631L16.6368 10.728C16.6434 10.8878 16.6987 11.0178 16.803 11.126C16.8025 11.1255 16.802 11.125 16.8014 11.1245L16.697 11.2321L16.8046 11.1277C16.8041 11.1271 16.8036 11.1266 16.803 11.126C16.9045 11.2236 17.049 11.2801 17.255 11.2801C17.4353 11.2801 17.5603 11.238 17.6461 11.1699C17.6457 11.1703 17.6453 11.1706 17.6449 11.1709L17.741 11.2861L17.6473 11.169C17.6469 11.1693 17.6465 11.1696 17.6461 11.1699C17.7292 11.1002 17.771 11.0116 17.771 10.8901C17.771 10.7521 17.7292 10.6623 17.6593 10.6002L17.6572 10.5984C17.5726 10.5203 17.4527 10.4514 17.2906 10.3961L16.7267 10.2041C16.3888 10.0873 16.1171 9.93287 15.9237 9.73496L15.9225 9.7337C15.7229 9.52465 15.6292 9.2512 15.629 8.92936C15.629 8.92976 15.629 8.93015 15.629 8.93054L15.779 8.92813H15.629C15.629 8.92854 15.629 8.92895 15.629 8.92936C15.6248 8.65612 15.6891 8.41294 15.829 8.20762C15.9693 8.004 16.1593 7.84845 16.394 7.74196ZM16.394 7.74196C16.3937 7.74213 16.3933 7.74229 16.393 7.74246L16.457 7.87812L16.3951 7.74148C16.3947 7.74164 16.3944 7.7418 16.394 7.74196ZM9.6001 7.65012H10.7546L11.9992 10.1281L13.227 7.65012H14.3821V12.1501H13.3141V9.72734L12.386 11.5501H11.5961L10.6681 9.72734V12.1501H9.6001V7.65012ZM9.9001 7.95012V11.8501H10.3681V9.10213L10.6518 9.03407L11.78 11.2501H12.2021L13.3304 9.03407L13.6141 9.10213V11.8501H14.0821V7.95012H13.4132L12.001 10.8001L10.5696 7.95012H9.9001Z" fill="#0DB4F7"/>
</svg>
