<svg width="24" height="24" viewBox="0 0 24 24" fill="none" xmlns="http://www.w3.org/2000/svg">
<path d="M4.5 7H6.16667H19.5" stroke="#E85858" stroke-width="2" stroke-linecap="round" stroke-linejoin="round"/>
<path d="M8.66602 6.99984V5.33317C8.66602 4.89114 8.84161 4.46722 9.15417 4.15466C9.46673 3.8421 9.89066 3.6665 10.3327 3.6665H13.666C14.108 3.6665 14.532 3.8421 14.8445 4.15466C15.1571 4.46722 15.3327 4.89114 15.3327 5.33317V6.99984M17.8327 6.99984V18.6665C17.8327 19.1085 17.6571 19.5325 17.3445 19.845C17.032 20.1576 16.608 20.3332 16.166 20.3332H7.83268C7.39065 20.3332 6.96673 20.1576 6.65417 19.845C6.34161 19.5325 6.16602 19.1085 6.16602 18.6665V6.99984H17.8327Z" stroke="#E85858" stroke-width="2" stroke-linecap="round" stroke-linejoin="round"/>
<path d="M10.334 11.1665V16.1665" stroke="#E85858" stroke-width="2" stroke-linecap="round" stroke-linejoin="round"/>
<path d="M13.666 11.1665V16.1665" stroke="#E85858" stroke-width="2" stroke-linecap="round" stroke-linejoin="round"/>
</svg>
