<svg width="210" height="62" viewBox="0 0 210 62" fill="none" xmlns="http://www.w3.org/2000/svg">
<path d="M32.25 36V26C32.2496 25.5616 32.1338 25.131 31.9144 24.7515C31.695 24.3719 31.3797 24.0567 31 23.8375L22.25 18.8375C21.87 18.6181 21.4388 18.5026 21 18.5026C20.5612 18.5026 20.13 18.6181 19.75 18.8375L11 23.8375C10.6203 24.0567 10.305 24.3719 10.0856 24.7515C9.86618 25.131 9.75045 25.5616 9.75 26V36C9.75045 36.4384 9.86618 36.869 10.0856 37.2485C10.305 37.6281 10.6203 37.9433 11 38.1625L19.75 43.1625C20.13 43.3819 20.5612 43.4974 21 43.4974C21.4388 43.4974 21.87 43.3819 22.25 43.1625L31 38.1625C31.3797 37.9433 31.695 37.6281 31.9144 37.2485C32.1338 36.869 32.2496 36.4384 32.25 36Z" stroke="#2D7FFC" stroke-width="2" stroke-linecap="round" stroke-linejoin="round"/>
<path d="M10.0874 24.7L20.9999 31.0125L31.9124 24.7" stroke="#2D7FFC" stroke-width="2" stroke-linecap="round" stroke-linejoin="round"/>
<path d="M21 43.6V31" stroke="#2D7FFC" stroke-width="2" stroke-linecap="round" stroke-linejoin="round"/>
<path d="M51.94 36.15C50.89 36.15 49.98 35.965 49.21 35.595C48.45 35.215 47.865 34.685 47.455 34.005C47.045 33.325 46.84 32.545 46.84 31.665C46.84 30.485 47.11 29.415 47.65 28.455C48.19 27.495 48.95 26.74 49.93 26.19C50.91 25.63 52.035 25.35 53.305 25.35C54.215 25.35 55.015 25.5 55.705 25.8C56.405 26.1 56.935 26.535 57.295 27.105L55.885 28.29C55.295 27.47 54.39 27.06 53.17 27.06C52.3 27.06 51.535 27.26 50.875 27.66C50.215 28.06 49.705 28.605 49.345 29.295C48.985 29.975 48.805 30.725 48.805 31.545C48.805 32.435 49.09 33.14 49.66 33.66C50.23 34.18 51.04 34.44 52.09 34.44C53.3 34.44 54.295 34.035 55.075 33.225L56.215 34.455C55.715 35.025 55.1 35.45 54.37 35.73C53.64 36.01 52.83 36.15 51.94 36.15ZM64.0437 36.15C63.0037 36.15 62.1037 35.965 61.3437 35.595C60.5937 35.215 60.0187 34.69 59.6187 34.02C59.2187 33.34 59.0187 32.555 59.0187 31.665C59.0187 30.485 59.2837 29.415 59.8137 28.455C60.3537 27.495 61.1137 26.74 62.0937 26.19C63.0737 25.63 64.1937 25.35 65.4537 25.35C66.4937 25.35 67.3887 25.54 68.1387 25.92C68.8987 26.29 69.4787 26.815 69.8787 27.495C70.2787 28.165 70.4787 28.945 70.4787 29.835C70.4787 31.015 70.2087 32.085 69.6687 33.045C69.1387 34.005 68.3837 34.765 67.4037 35.325C66.4237 35.875 65.3037 36.15 64.0437 36.15ZM64.2087 34.44C65.0587 34.44 65.8087 34.24 66.4587 33.84C67.1187 33.43 67.6237 32.885 67.9737 32.205C68.3337 31.515 68.5137 30.765 68.5137 29.955C68.5137 29.075 68.2287 28.375 67.6587 27.855C67.0987 27.325 66.3037 27.06 65.2737 27.06C64.4237 27.06 63.6687 27.265 63.0087 27.675C62.3587 28.075 61.8587 28.62 61.5087 29.31C61.1587 29.99 60.9837 30.735 60.9837 31.545C60.9837 32.425 61.2637 33.13 61.8237 33.66C62.3837 34.18 63.1787 34.44 64.2087 34.44ZM86.5107 25.5L84.4107 36H82.5657L83.9307 29.115L79.4457 34.8H78.5757L76.1757 28.98L74.7807 36H72.9207L75.0207 25.5H76.6107L79.3857 32.49L84.8307 25.5H86.5107ZM94.8968 25.5C96.1668 25.5 97.1468 25.78 97.8368 26.34C98.5368 26.89 98.8868 27.665 98.8868 28.665C98.8868 29.555 98.6818 30.325 98.2718 30.975C97.8718 31.615 97.2918 32.11 96.5318 32.46C95.7818 32.8 94.8968 32.97 93.8768 32.97H91.3118L90.6968 36H88.7468L90.8468 25.5H94.8968ZM93.9518 31.32C94.9018 31.32 95.6318 31.11 96.1418 30.69C96.6618 30.26 96.9218 29.645 96.9218 28.845C96.9218 28.285 96.7268 27.865 96.3368 27.585C95.9568 27.295 95.4068 27.15 94.6868 27.15H92.4668L91.6418 31.32H93.9518ZM107.852 33.57H102.572L101.057 36H98.9718L105.797 25.5H107.732L110.342 36H108.407L107.852 33.57ZM107.492 32.04L106.427 27.42L103.532 32.04H107.492ZM124.607 25.5L122.507 36H120.902L116.597 28.65L115.127 36H113.192L115.292 25.5H116.897L121.217 32.85L122.672 25.5H124.607ZM132.056 32.415L131.336 36H129.401L130.136 32.28L127.391 25.5H129.326L131.396 30.63L135.536 25.5H137.576L132.056 32.415ZM145.998 25.5H147.948L146.178 34.35H151.668L151.338 36H143.898L145.998 25.5ZM159.437 36.15C158.397 36.15 157.497 35.965 156.737 35.595C155.987 35.215 155.412 34.69 155.012 34.02C154.612 33.34 154.412 32.555 154.412 31.665C154.412 30.485 154.677 29.415 155.207 28.455C155.747 27.495 156.507 26.74 157.487 26.19C158.467 25.63 159.587 25.35 160.847 25.35C161.887 25.35 162.782 25.54 163.532 25.92C164.292 26.29 164.872 26.815 165.272 27.495C165.672 28.165 165.872 28.945 165.872 29.835C165.872 31.015 165.602 32.085 165.062 33.045C164.532 34.005 163.777 34.765 162.797 35.325C161.817 35.875 160.697 36.15 159.437 36.15ZM159.602 34.44C160.452 34.44 161.202 34.24 161.852 33.84C162.512 33.43 163.017 32.885 163.367 32.205C163.727 31.515 163.907 30.765 163.907 29.955C163.907 29.075 163.622 28.375 163.052 27.855C162.492 27.325 161.697 27.06 160.667 27.06C159.817 27.06 159.062 27.265 158.402 27.675C157.752 28.075 157.252 28.62 156.902 29.31C156.552 29.99 156.377 30.735 156.377 31.545C156.377 32.425 156.657 33.13 157.217 33.66C157.777 34.18 158.572 34.44 159.602 34.44ZM176.564 30.63H178.409L177.554 34.86C177.024 35.27 176.419 35.59 175.739 35.82C175.069 36.04 174.369 36.15 173.639 36.15C172.609 36.15 171.709 35.965 170.939 35.595C170.169 35.215 169.574 34.69 169.154 34.02C168.744 33.34 168.539 32.555 168.539 31.665C168.539 30.485 168.809 29.415 169.349 28.455C169.889 27.495 170.654 26.74 171.644 26.19C172.634 25.63 173.774 25.35 175.064 25.35C176.014 25.35 176.844 25.5 177.554 25.8C178.264 26.09 178.839 26.515 179.279 27.075L177.869 28.245C177.529 27.835 177.124 27.535 176.654 27.345C176.184 27.155 175.624 27.06 174.974 27.06C174.084 27.06 173.299 27.26 172.619 27.66C171.949 28.05 171.429 28.585 171.059 29.265C170.689 29.945 170.504 30.705 170.504 31.545C170.504 32.435 170.794 33.14 171.374 33.66C171.954 34.18 172.784 34.44 173.864 34.44C174.594 34.44 175.274 34.275 175.904 33.945L176.564 30.63ZM186.651 36.15C185.611 36.15 184.711 35.965 183.951 35.595C183.201 35.215 182.626 34.69 182.226 34.02C181.826 33.34 181.626 32.555 181.626 31.665C181.626 30.485 181.891 29.415 182.421 28.455C182.961 27.495 183.721 26.74 184.701 26.19C185.681 25.63 186.801 25.35 188.061 25.35C189.101 25.35 189.996 25.54 190.746 25.92C191.506 26.29 192.086 26.815 192.486 27.495C192.886 28.165 193.086 28.945 193.086 29.835C193.086 31.015 192.816 32.085 192.276 33.045C191.746 34.005 190.991 34.765 190.011 35.325C189.031 35.875 187.911 36.15 186.651 36.15ZM186.816 34.44C187.666 34.44 188.416 34.24 189.066 33.84C189.726 33.43 190.231 32.885 190.581 32.205C190.941 31.515 191.121 30.765 191.121 29.955C191.121 29.075 190.836 28.375 190.266 27.855C189.706 27.325 188.911 27.06 187.881 27.06C187.031 27.06 186.276 27.265 185.616 27.675C184.966 28.075 184.466 28.62 184.116 29.31C183.766 29.99 183.591 30.735 183.591 31.545C183.591 32.425 183.871 33.13 184.431 33.66C184.991 34.18 185.786 34.44 186.816 34.44Z" fill="#2D7FFC"/>
<path d="M49.21 35.595L48.9864 36.0423L48.9934 36.0457L49.21 35.595ZM47.455 34.005L47.0268 34.2632L47.0268 34.2632L47.455 34.005ZM47.65 28.455L48.0858 28.7001L48.0858 28.7001L47.65 28.455ZM49.93 26.19L50.1747 26.626L50.1781 26.6241L49.93 26.19ZM55.705 25.8L55.5056 26.2585L55.508 26.2596L55.705 25.8ZM57.295 27.105L57.6167 27.4878L57.9508 27.207L57.7177 26.838L57.295 27.105ZM55.885 28.29L55.4791 28.582L55.794 29.0196L56.2067 28.6728L55.885 28.29ZM50.875 27.66L50.6158 27.2324L50.6158 27.2324L50.875 27.66ZM49.345 29.295L49.7869 29.5289L49.7883 29.5263L49.345 29.295ZM55.075 33.225L55.4417 32.8851L55.0819 32.4969L54.7148 32.8782L55.075 33.225ZM56.215 34.455L56.5909 34.7847L56.8882 34.4458L56.5817 34.1151L56.215 34.455ZM54.37 35.73L54.5491 36.1968L54.37 35.73ZM51.94 35.65C50.9481 35.65 50.1153 35.4753 49.4266 35.1443L48.9934 36.0457C49.8447 36.4547 50.8319 36.65 51.94 36.65V35.65ZM49.4336 35.1478C48.7521 34.807 48.2408 34.34 47.8832 33.7468L47.0268 34.2632C47.4892 35.03 48.1479 35.623 48.9864 36.0422L49.4336 35.1478ZM47.8832 33.7468C47.5251 33.153 47.34 32.4641 47.34 31.665H46.34C46.34 32.6259 46.5649 33.497 47.0268 34.2632L47.8832 33.7468ZM47.34 31.665C47.34 30.5645 47.5909 29.58 48.0858 28.7001L47.2142 28.2099C46.6291 29.25 46.34 30.4055 46.34 31.665H47.34ZM48.0858 28.7001C48.5799 27.8218 49.273 27.1321 50.1747 26.626L49.6853 25.754C48.627 26.3479 47.8001 27.1682 47.2142 28.2099L48.0858 28.7001ZM50.1781 26.6241C51.0734 26.1125 52.1109 25.85 53.305 25.85V24.85C51.9591 24.85 50.7466 25.1475 49.6819 25.7559L50.1781 26.6241ZM53.305 25.85C54.1605 25.85 54.8903 25.991 55.5056 26.2585L55.9044 25.3415C55.1397 25.009 54.2695 24.85 53.305 24.85V25.85ZM55.508 26.2596C56.1275 26.5251 56.5731 26.8984 56.8723 27.372L57.7177 26.838C57.2969 26.1716 56.6825 25.6749 55.902 25.3404L55.508 26.2596ZM56.9733 26.7222L55.5633 27.9072L56.2067 28.6728L57.6167 27.4878L56.9733 26.7222ZM56.2909 27.998C55.5868 27.0195 54.5131 26.56 53.17 26.56V27.56C54.2669 27.56 55.0032 27.9205 55.4791 28.582L56.2909 27.998ZM53.17 26.56C52.2205 26.56 51.3636 26.7792 50.6158 27.2324L51.1342 28.0876C51.7064 27.7408 52.3795 27.56 53.17 27.56V26.56ZM50.6158 27.2324C49.877 27.6802 49.3036 28.2934 48.9017 29.0637L49.7883 29.5263C50.1064 28.9166 50.553 28.4398 51.1342 28.0876L50.6158 27.2324ZM48.9031 29.0611C48.5024 29.8179 48.305 30.649 48.305 31.545H49.305C49.305 30.801 49.4676 30.1321 49.7869 29.5289L48.9031 29.0611ZM48.305 31.545C48.305 32.5518 48.6328 33.3998 49.323 34.0294L49.997 33.2906C49.5472 32.8802 49.305 32.3182 49.305 31.545H48.305ZM49.323 34.0294C50.014 34.6597 50.9608 34.94 52.09 34.94V33.94C51.1192 33.94 50.446 33.7003 49.997 33.2906L49.323 34.0294ZM52.09 34.94C53.4244 34.94 54.5532 34.4877 55.4352 33.5718L54.7148 32.8782C54.0368 33.5823 53.1756 33.94 52.09 33.94V34.94ZM54.7083 33.5649L55.8483 34.7949L56.5817 34.1151L55.4417 32.8851L54.7083 33.5649ZM55.8391 34.1253C55.3943 34.6323 54.8476 35.0113 54.1909 35.2632L54.5491 36.1968C55.3524 35.8887 56.0357 35.4177 56.5909 34.7847L55.8391 34.1253ZM54.1909 35.2632C53.5254 35.5184 52.7772 35.65 51.94 35.65V36.65C52.8828 36.65 53.7546 36.5016 54.5491 36.1968L54.1909 35.2632ZM61.3437 35.595L61.1177 36.0411L61.1248 36.0446L61.3437 35.595ZM59.6187 34.02L59.1877 34.2735L59.1894 34.2763L59.6187 34.02ZM59.8137 28.455L59.3779 28.2099L59.376 28.2133L59.8137 28.455ZM62.0937 26.19L62.3384 26.626L62.3418 26.6241L62.0937 26.19ZM68.1387 25.92L67.9127 26.3661L67.9198 26.3696L68.1387 25.92ZM69.8787 27.495L69.4477 27.7485L69.4494 27.7513L69.8787 27.495ZM69.6687 33.045L69.2329 32.7999L69.231 32.8033L69.6687 33.045ZM67.4037 35.325L67.6484 35.761L67.6518 35.7591L67.4037 35.325ZM66.4587 33.84L66.7208 34.2658L66.7226 34.2647L66.4587 33.84ZM67.9737 32.205L67.5304 31.9737L67.5291 31.9762L67.9737 32.205ZM67.6587 27.855L67.315 28.2182L67.3217 28.2244L67.6587 27.855ZM63.0087 27.675L63.2708 28.1008L63.2726 28.0997L63.0087 27.675ZM61.5087 29.31L61.9533 29.5388L61.9546 29.5362L61.5087 29.31ZM61.8237 33.66L61.48 34.0232L61.4835 34.0264L61.8237 33.66ZM64.0437 35.65C63.0624 35.65 62.2405 35.4755 61.5626 35.1454L61.1248 36.0446C61.9669 36.4545 62.945 36.65 64.0437 36.65V35.65ZM61.5697 35.149C60.8972 34.8083 60.3958 34.3462 60.048 33.7637L59.1894 34.2763C59.6416 35.0338 60.2902 35.6217 61.1177 36.041L61.5697 35.149ZM60.0497 33.7665C59.7004 33.1728 59.5187 32.4775 59.5187 31.665H58.5187C58.5187 32.6325 58.737 33.5072 59.1877 34.2735L60.0497 33.7665ZM59.5187 31.665C59.5187 30.5629 59.7654 29.5771 60.2514 28.6967L59.376 28.2133C58.8021 29.2529 58.5187 30.4071 58.5187 31.665H59.5187ZM60.2495 28.7001C60.7436 27.8218 61.4367 27.1321 62.3384 26.626L61.849 25.754C60.7907 26.3479 59.9638 27.1682 59.3779 28.2099L60.2495 28.7001ZM62.3418 26.6241C63.2377 26.1121 64.2704 25.85 65.4537 25.85V24.85C64.117 24.85 62.9097 25.1478 61.8456 25.7559L62.3418 26.6241ZM65.4537 25.85C66.4334 25.85 67.2474 26.0289 67.9127 26.366L68.3647 25.474C67.53 25.0511 66.554 24.85 65.4537 24.85V25.85ZM67.9198 26.3696C68.598 26.6997 69.1012 27.1594 69.4477 27.7485L70.3097 27.2415C69.8562 26.4706 69.1994 25.8803 68.3576 25.4704L67.9198 26.3696ZM69.4494 27.7513C69.7969 28.3334 69.9787 29.0223 69.9787 29.835H70.9787C70.9787 28.8677 70.7605 27.9966 70.308 27.2387L69.4494 27.7513ZM69.9787 29.835C69.9787 30.9355 69.7278 31.92 69.2329 32.7999L70.1045 33.2901C70.6896 32.25 70.9787 31.0945 70.9787 29.835H69.9787ZM69.231 32.8033C68.7467 33.6806 68.0584 34.375 67.1556 34.8909L67.6518 35.7591C68.709 35.155 69.5307 34.3294 70.1064 33.2867L69.231 32.8033ZM67.159 34.889C66.2625 35.3921 65.2286 35.65 64.0437 35.65V36.65C65.3788 36.65 66.585 36.3579 67.6484 35.761L67.159 34.889ZM64.2087 34.94C65.1404 34.94 65.9832 34.7197 66.7208 34.2658L66.1967 33.4142C65.6342 33.7603 64.977 33.94 64.2087 33.94V34.94ZM66.7226 34.2647C67.4581 33.8078 68.0262 33.1956 68.4183 32.4338L67.5291 31.9762C67.2212 32.5744 66.7793 33.0522 66.1949 33.4153L66.7226 34.2647ZM68.417 32.4363C68.8158 31.6719 69.0137 30.8421 69.0137 29.955H68.0137C68.0137 30.6879 67.8516 31.3581 67.5304 31.9737L68.417 32.4363ZM69.0137 29.955C69.0137 28.9562 68.6846 28.1141 67.9957 27.4856L67.3217 28.2244C67.7728 28.6359 68.0137 29.1938 68.0137 29.955H69.0137ZM68.0024 27.4919C67.3219 26.8478 66.3876 26.56 65.2737 26.56V27.56C66.2198 27.56 66.8755 27.8022 67.315 28.2181L68.0024 27.4919ZM65.2737 26.56C64.3395 26.56 63.4914 26.7865 62.7449 27.2503L63.2726 28.0997C63.846 27.7435 64.5079 27.56 65.2737 27.56V26.56ZM62.7467 27.2492C62.017 27.6982 61.4539 28.3128 61.0628 29.0838L61.9546 29.5362C62.2635 28.9272 62.7004 28.4518 63.2708 28.1008L62.7467 27.2492ZM61.0641 29.0812C60.6756 29.8361 60.4837 30.6602 60.4837 31.545H61.4837C61.4837 30.8098 61.6419 30.1439 61.9533 29.5388L61.0641 29.0812ZM60.4837 31.545C60.4837 32.5411 60.8058 33.385 61.48 34.0231L62.1674 33.2969C61.7217 32.875 61.4837 32.3089 61.4837 31.545H60.4837ZM61.4835 34.0264C62.1642 34.6585 63.0972 34.94 64.2087 34.94V33.94C63.2602 33.94 62.6032 33.7015 62.1639 33.2936L61.4835 34.0264ZM86.5107 25.5L87.001 25.5981L87.1206 25H86.5107V25.5ZM84.4107 36V36.5H84.8206L84.901 36.0981L84.4107 36ZM82.5657 36L82.0752 35.9028L81.9568 36.5H82.5657V36ZM83.9307 29.115L84.4211 29.2122L83.5381 28.8053L83.9307 29.115ZM79.4457 34.8V35.3H79.6881L79.8382 35.1097L79.4457 34.8ZM78.5757 34.8L78.1134 34.9906L78.241 35.3H78.5757V34.8ZM76.1757 28.98L76.6379 28.7894L76.0075 27.2607L75.6853 28.8825L76.1757 28.98ZM74.7807 36V36.5H75.1911L75.2711 36.0975L74.7807 36ZM72.9207 36L72.4304 35.9019L72.3108 36.5H72.9207V36ZM75.0207 25.5V25H74.6108L74.5304 25.4019L75.0207 25.5ZM76.6107 25.5L77.0754 25.3155L76.9501 25H76.6107V25.5ZM79.3857 32.49L78.9209 32.6745L79.2433 33.4864L79.7801 32.7973L79.3857 32.49ZM84.8307 25.5V25H84.5864L84.4362 25.1927L84.8307 25.5ZM86.0204 25.4019L83.9204 35.9019L84.901 36.0981L87.001 25.5981L86.0204 25.4019ZM84.4107 35.5H82.5657V36.5H84.4107V35.5ZM83.0561 36.0972L84.4211 29.2122L83.4402 29.0178L82.0752 35.9028L83.0561 36.0972ZM83.5381 28.8053L79.0531 34.4903L79.8382 35.1097L84.3232 29.4247L83.5381 28.8053ZM79.4457 34.3H78.5757V35.3H79.4457V34.3ZM79.0379 34.6094L76.6379 28.7894L75.7134 29.1706L78.1134 34.9906L79.0379 34.6094ZM75.6853 28.8825L74.2903 35.9025L75.2711 36.0975L76.6661 29.0775L75.6853 28.8825ZM74.7807 35.5H72.9207V36.5H74.7807V35.5ZM73.411 36.0981L75.511 25.5981L74.5304 25.4019L72.4304 35.9019L73.411 36.0981ZM75.0207 26H76.6107V25H75.0207V26ZM76.1459 25.6845L78.9209 32.6745L79.8504 32.3055L77.0754 25.3155L76.1459 25.6845ZM79.7801 32.7973L85.2251 25.8073L84.4362 25.1927L78.9912 32.1827L79.7801 32.7973ZM84.8307 26H86.5107V25H84.8307V26ZM97.8368 26.34L97.5217 26.7283L97.5279 26.7332L97.8368 26.34ZM98.2718 30.975L97.8489 30.7082L97.8478 30.71L98.2718 30.975ZM96.5318 32.46L96.7383 32.9154L96.741 32.9142L96.5318 32.46ZM91.3118 32.97V32.47H90.9031L90.8218 32.8705L91.3118 32.97ZM90.6968 36V36.5H91.1055L91.1868 36.0995L90.6968 36ZM88.7468 36L88.2565 35.9019L88.1369 36.5H88.7468V36ZM90.8468 25.5V25H90.4369L90.3565 25.4019L90.8468 25.5ZM96.1418 30.69L96.4597 31.076L96.4605 31.0753L96.1418 30.69ZM96.3368 27.585L96.0335 27.9825L96.0393 27.9869L96.0452 27.9912L96.3368 27.585ZM92.4668 27.15V26.65H92.0561L91.9763 27.053L92.4668 27.15ZM91.6418 31.32L91.1513 31.223L91.0332 31.82H91.6418V31.32ZM94.8968 26C96.1002 26 96.9522 26.266 97.5218 26.7282L98.1519 25.9518C97.3415 25.294 96.2334 25 94.8968 25V26ZM97.5279 26.7332C98.0913 27.1758 98.3868 27.7969 98.3868 28.665H99.3868C99.3868 27.5331 98.9824 26.6042 98.1457 25.9468L97.5279 26.7332ZM98.3868 28.665C98.3868 29.4758 98.201 30.1501 97.8489 30.7082L98.6947 31.2418C99.1627 30.4999 99.3868 29.6342 99.3868 28.665H98.3868ZM97.8478 30.71C97.505 31.2585 97.0041 31.692 96.3227 32.0058L96.741 32.9142C97.5795 32.528 98.2387 31.9715 98.6958 31.24L97.8478 30.71ZM96.3254 32.0046C95.6538 32.3091 94.8422 32.47 93.8768 32.47V33.47C94.9515 33.47 95.9099 33.2909 96.7383 32.9154L96.3254 32.0046ZM93.8768 32.47H91.3118V33.47H93.8768V32.47ZM90.8218 32.8705L90.2068 35.9005L91.1868 36.0995L91.8018 33.0695L90.8218 32.8705ZM90.6968 35.5H88.7468V36.5H90.6968V35.5ZM89.2371 36.0981L91.3371 25.5981L90.3565 25.4019L88.2565 35.9019L89.2371 36.0981ZM90.8468 26H94.8968V25H90.8468V26ZM93.9518 31.82C94.9682 31.82 95.8282 31.596 96.4597 31.076L95.824 30.304C95.4355 30.624 94.8355 30.82 93.9518 30.82V31.82ZM96.4605 31.0753C97.1171 30.5324 97.4218 29.7634 97.4218 28.845H96.4218C96.4218 29.5266 96.2066 29.9876 95.8232 30.3047L96.4605 31.0753ZM97.4218 28.845C97.4218 28.1546 97.1723 27.5693 96.6284 27.1788L96.0452 27.9912C96.2814 28.1607 96.4218 28.4154 96.4218 28.845H97.4218ZM96.6402 27.1875C96.1388 26.8049 95.4637 26.65 94.6868 26.65V27.65C95.35 27.65 95.7749 27.7851 96.0335 27.9825L96.6402 27.1875ZM94.6868 26.65H92.4668V27.65H94.6868V26.65ZM91.9763 27.053L91.1513 31.223L92.1323 31.417L92.9573 27.247L91.9763 27.053ZM91.6418 31.82H93.9518V30.82H91.6418V31.82ZM107.852 33.57L108.339 33.4587L108.25 33.07H107.852V33.57ZM102.572 33.57V33.07H102.294L102.148 33.3055L102.572 33.57ZM101.057 36V36.5H101.334L101.481 36.2645L101.057 36ZM98.9718 36L98.5526 35.7275L98.0505 36.5H98.9718V36ZM105.797 25.5V25H105.525L105.378 25.2275L105.797 25.5ZM107.732 25.5L108.217 25.3794L108.123 25H107.732V25.5ZM110.342 36V36.5H110.981L110.827 35.8794L110.342 36ZM108.407 36L107.919 36.1113L108.008 36.5H108.407V36ZM107.492 32.04V32.54H108.12L107.979 31.9277L107.492 32.04ZM106.427 27.42L106.914 27.3077L106.643 26.133L106.003 27.1545L106.427 27.42ZM103.532 32.04L103.108 31.7745L102.628 32.54H103.532V32.04ZM107.852 33.07H102.572V34.07H107.852V33.07ZM102.148 33.3055L100.633 35.7355L101.481 36.2645L102.996 33.8345L102.148 33.3055ZM101.057 35.5H98.9718V36.5H101.057V35.5ZM99.391 36.2725L106.216 25.7725L105.378 25.2275L98.5526 35.7275L99.391 36.2725ZM105.797 26H107.732V25H105.797V26ZM107.247 25.6206L109.857 36.1206L110.827 35.8794L108.217 25.3794L107.247 25.6206ZM110.342 35.5H108.407V36.5H110.342V35.5ZM108.894 35.8887L108.339 33.4587L107.364 33.6813L107.919 36.1113L108.894 35.8887ZM107.979 31.9277L106.914 27.3077L105.94 27.5323L107.005 32.1523L107.979 31.9277ZM106.003 27.1545L103.108 31.7745L103.955 32.3055L106.85 27.6855L106.003 27.1545ZM103.532 32.54H107.492V31.54H103.532V32.54ZM124.607 25.5L125.097 25.5981L125.217 25H124.607V25.5ZM122.507 36V36.5H122.917L122.997 36.0981L122.507 36ZM120.902 36L120.471 36.2527L120.616 36.5H120.902V36ZM116.597 28.65L117.029 28.3973L116.365 27.2635L116.107 28.5519L116.597 28.65ZM115.127 36V36.5H115.537L115.617 36.0981L115.127 36ZM113.192 36L112.702 35.9019L112.582 36.5H113.192V36ZM115.292 25.5V25H114.882L114.802 25.4019L115.292 25.5ZM116.897 25.5L117.328 25.2466L117.183 25H116.897V25.5ZM121.217 32.85L120.786 33.1034L121.452 34.2369L121.708 32.9471L121.217 32.85ZM122.672 25.5V25H122.261L122.182 25.4029L122.672 25.5ZM124.117 25.4019L122.017 35.9019L122.997 36.0981L125.097 25.5981L124.117 25.4019ZM122.507 35.5H120.902V36.5H122.507V35.5ZM121.334 35.7473L117.029 28.3973L116.166 28.9027L120.471 36.2527L121.334 35.7473ZM116.107 28.5519L114.637 35.9019L115.617 36.0981L117.087 28.7481L116.107 28.5519ZM115.127 35.5H113.192V36.5H115.127V35.5ZM113.682 36.0981L115.782 25.5981L114.802 25.4019L112.702 35.9019L113.682 36.0981ZM115.292 26H116.897V25H115.292V26ZM116.466 25.7534L120.786 33.1034L121.648 32.5966L117.328 25.2466L116.466 25.7534ZM121.708 32.9471L123.163 25.5971L122.182 25.4029L120.727 32.7529L121.708 32.9471ZM122.672 26H124.607V25H122.672V26ZM132.056 32.415L131.665 32.1031L131.589 32.1978L131.565 32.3165L132.056 32.415ZM131.336 36V36.5H131.745L131.826 36.0985L131.336 36ZM129.401 36L128.91 35.9031L128.792 36.5H129.401V36ZM130.136 32.28L130.626 32.3769L130.655 32.2306L130.599 32.0924L130.136 32.28ZM127.391 25.5V25H126.649L126.927 25.6876L127.391 25.5ZM129.326 25.5L129.789 25.3129L129.663 25H129.326V25.5ZM131.396 30.63L130.932 30.8171L131.25 31.6062L131.785 30.944L131.396 30.63ZM135.536 25.5V25H135.297L135.147 25.186L135.536 25.5ZM137.576 25.5L137.966 25.8119L138.615 25H137.576V25.5ZM131.565 32.3165L130.845 35.9015L131.826 36.0985L132.546 32.5135L131.565 32.3165ZM131.336 35.5H129.401V36.5H131.336V35.5ZM129.891 36.0969L130.626 32.3769L129.645 32.1831L128.91 35.9031L129.891 36.0969ZM130.599 32.0924L127.854 25.3124L126.927 25.6876L129.672 32.4676L130.599 32.0924ZM127.391 26H129.326V25H127.391V26ZM128.862 25.6871L130.932 30.8171L131.859 30.4429L129.789 25.3129L128.862 25.6871ZM131.785 30.944L135.925 25.814L135.147 25.186L131.007 30.316L131.785 30.944ZM135.536 26H137.576V25H135.536V26ZM137.185 25.1881L131.665 32.1031L132.446 32.7269L137.966 25.8119L137.185 25.1881ZM145.998 25.5V25H145.588L145.508 25.4019L145.998 25.5ZM147.948 25.5L148.438 25.5981L148.558 25H147.948V25.5ZM146.178 34.35L145.688 34.2519L145.568 34.85H146.178V34.35ZM151.668 34.35L152.158 34.4481L152.278 33.85H151.668V34.35ZM151.338 36V36.5H151.748L151.828 36.0981L151.338 36ZM143.898 36L143.408 35.9019L143.288 36.5H143.898V36ZM145.998 26H147.948V25H145.998V26ZM147.458 25.4019L145.688 34.2519L146.668 34.4481L148.438 25.5981L147.458 25.4019ZM146.178 34.85H151.668V33.85H146.178V34.85ZM151.178 34.2519L150.848 35.9019L151.828 36.0981L152.158 34.4481L151.178 34.2519ZM151.338 35.5H143.898V36.5H151.338V35.5ZM144.388 36.0981L146.488 25.5981L145.508 25.4019L143.408 35.9019L144.388 36.0981ZM156.737 35.595L156.511 36.0411L156.518 36.0446L156.737 35.595ZM155.012 34.02L154.581 34.2735L154.583 34.2763L155.012 34.02ZM155.207 28.455L154.771 28.2099L154.77 28.2133L155.207 28.455ZM157.487 26.19L157.732 26.626L157.735 26.6241L157.487 26.19ZM163.532 25.92L163.306 26.3661L163.313 26.3696L163.532 25.92ZM165.272 27.495L164.841 27.7485L164.843 27.7513L165.272 27.495ZM165.062 33.045L164.626 32.7999L164.625 32.8033L165.062 33.045ZM162.797 35.325L163.042 35.761L163.045 35.7591L162.797 35.325ZM161.852 33.84L162.114 34.2658L162.116 34.2647L161.852 33.84ZM163.367 32.205L162.924 31.9737L162.923 31.9762L163.367 32.205ZM163.052 27.855L162.709 28.2182L162.715 28.2244L163.052 27.855ZM158.402 27.675L158.664 28.1008L158.666 28.0997L158.402 27.675ZM156.902 29.31L157.347 29.5388L157.348 29.5362L156.902 29.31ZM157.217 33.66L156.874 34.0232L156.877 34.0264L157.217 33.66ZM159.437 35.65C158.456 35.65 157.634 35.4755 156.956 35.1454L156.518 36.0446C157.36 36.4545 158.339 36.65 159.437 36.65V35.65ZM156.963 35.149C156.291 34.8083 155.789 34.3462 155.442 33.7637L154.583 34.2763C155.035 35.0338 155.684 35.6217 156.511 36.041L156.963 35.149ZM155.443 33.7665C155.094 33.1728 154.912 32.4775 154.912 31.665H153.912C153.912 32.6325 154.131 33.5072 154.581 34.2735L155.443 33.7665ZM154.912 31.665C154.912 30.5629 155.159 29.5771 155.645 28.6967L154.77 28.2133C154.196 29.2529 153.912 30.4071 153.912 31.665H154.912ZM155.643 28.7001C156.137 27.8218 156.83 27.1321 157.732 26.626L157.243 25.754C156.184 26.3479 155.357 27.1682 154.771 28.2099L155.643 28.7001ZM157.735 26.6241C158.631 26.1121 159.664 25.85 160.847 25.85V24.85C159.511 24.85 158.303 25.1478 157.239 25.7559L157.735 26.6241ZM160.847 25.85C161.827 25.85 162.641 26.0289 163.306 26.366L163.758 25.474C162.924 25.0511 161.948 24.85 160.847 24.85V25.85ZM163.313 26.3696C163.992 26.6997 164.495 27.1594 164.841 27.7485L165.703 27.2415C165.25 26.4706 164.593 25.8803 163.751 25.4704L163.313 26.3696ZM164.843 27.7513C165.19 28.3334 165.372 29.0223 165.372 29.835H166.372C166.372 28.8677 166.154 27.9966 165.702 27.2387L164.843 27.7513ZM165.372 29.835C165.372 30.9355 165.121 31.92 164.626 32.7999L165.498 33.2901C166.083 32.25 166.372 31.0945 166.372 29.835H165.372ZM164.625 32.8033C164.14 33.6806 163.452 34.375 162.549 34.8909L163.045 35.7591C164.103 35.155 164.924 34.3294 165.5 33.2867L164.625 32.8033ZM162.553 34.889C161.656 35.3921 160.622 35.65 159.437 35.65V36.65C160.772 36.65 161.979 36.3579 163.042 35.761L162.553 34.889ZM159.602 34.94C160.534 34.94 161.377 34.7197 162.114 34.2658L161.59 33.4142C161.028 33.7603 160.371 33.94 159.602 33.94V34.94ZM162.116 34.2647C162.852 33.8078 163.42 33.1956 163.812 32.4338L162.923 31.9762C162.615 32.5744 162.173 33.0522 161.588 33.4153L162.116 34.2647ZM163.811 32.4363C164.209 31.6719 164.407 30.8421 164.407 29.955H163.407C163.407 30.6879 163.245 31.3581 162.924 31.9737L163.811 32.4363ZM164.407 29.955C164.407 28.9562 164.078 28.1141 163.389 27.4856L162.715 28.2244C163.166 28.6359 163.407 29.1938 163.407 29.955H164.407ZM163.396 27.4919C162.715 26.8478 161.781 26.56 160.667 26.56V27.56C161.613 27.56 162.269 27.8022 162.709 28.2181L163.396 27.4919ZM160.667 26.56C159.733 26.56 158.885 26.7865 158.138 27.2503L158.666 28.0997C159.24 27.7435 159.901 27.56 160.667 27.56V26.56ZM158.14 27.2492C157.411 27.6982 156.847 28.3128 156.456 29.0838L157.348 29.5362C157.657 28.9272 158.094 28.4518 158.664 28.1008L158.14 27.2492ZM156.458 29.0812C156.069 29.8361 155.877 30.6602 155.877 31.545H156.877C156.877 30.8098 157.035 30.1439 157.347 29.5388L156.458 29.0812ZM155.877 31.545C155.877 32.5411 156.199 33.385 156.874 34.0231L157.561 33.2969C157.115 32.875 156.877 32.3089 156.877 31.545H155.877ZM156.877 34.0264C157.558 34.6585 158.491 34.94 159.602 34.94V33.94C158.654 33.94 157.997 33.7015 157.557 33.2936L156.877 34.0264ZM176.564 30.63V30.13H176.154L176.074 30.5324L176.564 30.63ZM178.409 30.63L178.899 30.7291L179.02 30.13H178.409V30.63ZM177.554 34.86L177.86 35.2555L178.007 35.1416L178.044 34.9591L177.554 34.86ZM175.739 35.82L175.895 36.2951L175.899 36.2936L175.739 35.82ZM170.939 35.595L170.718 36.0434L170.723 36.0457L170.939 35.595ZM169.154 34.02L168.726 34.2782L168.731 34.2856L169.154 34.02ZM169.349 28.455L169.785 28.7001L169.785 28.7001L169.349 28.455ZM171.644 26.19L171.887 26.6271L171.89 26.6252L171.644 26.19ZM177.554 25.8L177.36 26.2606L177.365 26.2629L177.554 25.8ZM179.279 27.075L179.599 27.4598L179.973 27.1489L179.672 26.7661L179.279 27.075ZM177.869 28.245L177.484 28.5642L177.804 28.9492L178.189 28.6298L177.869 28.245ZM176.654 27.345L176.467 27.8086L176.467 27.8086L176.654 27.345ZM172.619 27.66L172.871 28.0921L172.873 28.091L172.619 27.66ZM171.059 29.265L170.62 29.026L170.62 29.026L171.059 29.265ZM175.904 33.945L176.136 34.3879L176.348 34.277L176.395 34.0426L175.904 33.945ZM176.564 31.13H178.409V30.13H176.564V31.13ZM177.919 30.5309L177.064 34.7609L178.044 34.9591L178.899 30.7291L177.919 30.5309ZM177.248 34.4645C176.765 34.8382 176.21 35.1329 175.579 35.3464L175.899 36.2936C176.628 36.0471 177.283 35.7018 177.86 35.2555L177.248 34.4645ZM175.583 35.345C174.965 35.5478 174.318 35.65 173.639 35.65V36.65C174.42 36.65 175.173 36.5322 175.895 36.295L175.583 35.345ZM173.639 35.65C172.669 35.65 171.846 35.4759 171.156 35.1443L170.723 36.0457C171.573 36.4541 172.549 36.65 173.639 36.65V35.65ZM171.16 35.1466C170.466 34.804 169.944 34.3392 169.578 33.7544L168.731 34.2856C169.204 35.0408 169.872 35.626 170.718 36.0434L171.16 35.1466ZM169.582 33.7618C169.225 33.1689 169.039 32.4753 169.039 31.665H168.039C168.039 32.6347 168.264 33.5111 168.726 34.2782L169.582 33.7618ZM169.039 31.665C169.039 30.5645 169.29 29.58 169.785 28.7001L168.913 28.2099C168.328 29.25 168.039 30.4055 168.039 31.665H169.039ZM169.785 28.7001C170.278 27.8231 170.975 27.1335 171.887 26.6271L171.401 25.7529C170.333 26.3465 169.5 27.1669 168.913 28.2099L169.785 28.7001ZM171.89 26.6252C172.796 26.1131 173.849 25.85 175.064 25.85V24.85C173.7 24.85 172.473 25.1469 171.398 25.7548L171.89 26.6252ZM175.064 25.85C175.962 25.85 176.724 25.9919 177.36 26.2606L177.749 25.3394C176.965 25.0081 176.066 24.85 175.064 24.85V25.85ZM177.365 26.2629C178.001 26.5227 178.504 26.8973 178.886 27.3839L179.672 26.7661C179.175 26.1327 178.527 25.6573 177.743 25.3371L177.365 26.2629ZM178.96 26.6902L177.55 27.8602L178.189 28.6298L179.599 27.4598L178.96 26.6902ZM178.254 27.9258C177.864 27.4554 177.392 27.1041 176.842 26.8814L176.467 27.8086C176.856 27.9659 177.194 28.2146 177.484 28.5642L178.254 27.9258ZM176.842 26.8814C176.298 26.6616 175.671 26.56 174.974 26.56V27.56C175.577 27.56 176.071 27.6484 176.467 27.8086L176.842 26.8814ZM174.974 26.56C174.007 26.56 173.132 26.7783 172.366 27.229L172.873 28.091C173.466 27.7417 174.162 27.56 174.974 27.56V26.56ZM172.368 27.2279C171.619 27.6638 171.034 28.2656 170.62 29.026L171.498 29.504C171.825 28.9044 172.28 28.4362 172.871 28.0921L172.368 27.2279ZM170.62 29.026C170.207 29.7855 170.004 30.6288 170.004 31.545H171.004C171.004 30.7812 171.172 30.1045 171.498 29.504L170.62 29.026ZM170.004 31.545C170.004 32.5547 170.339 33.4035 171.04 34.0323L171.708 33.2877C171.249 32.8765 171.004 32.3153 171.004 31.545H170.004ZM171.04 34.0323C171.742 34.6616 172.709 34.94 173.864 34.94V33.94C172.86 33.94 172.166 33.6984 171.708 33.2877L171.04 34.0323ZM173.864 34.94C174.673 34.94 175.433 34.7564 176.136 34.3879L175.672 33.5021C175.116 33.7936 174.516 33.94 173.864 33.94V34.94ZM176.395 34.0426L177.055 30.7276L176.074 30.5324L175.414 33.8474L176.395 34.0426ZM183.951 35.595L183.725 36.0411L183.732 36.0446L183.951 35.595ZM182.226 34.02L181.795 34.2735L181.797 34.2763L182.226 34.02ZM182.421 28.455L181.985 28.2099L181.983 28.2133L182.421 28.455ZM184.701 26.19L184.946 26.626L184.949 26.6241L184.701 26.19ZM190.746 25.92L190.52 26.3661L190.527 26.3696L190.746 25.92ZM192.486 27.495L192.055 27.7485L192.057 27.7513L192.486 27.495ZM192.276 33.045L191.84 32.7999L191.838 32.8033L192.276 33.045ZM190.011 35.325L190.256 35.761L190.259 35.7591L190.011 35.325ZM189.066 33.84L189.328 34.2658L189.33 34.2647L189.066 33.84ZM190.581 32.205L190.138 31.9737L190.137 31.9762L190.581 32.205ZM190.266 27.855L189.922 28.2182L189.929 28.2244L190.266 27.855ZM185.616 27.675L185.878 28.1008L185.88 28.0997L185.616 27.675ZM184.116 29.31L184.561 29.5388L184.562 29.5362L184.116 29.31ZM184.431 33.66L184.087 34.0232L184.091 34.0264L184.431 33.66ZM186.651 35.65C185.67 35.65 184.848 35.4755 184.17 35.1454L183.732 36.0446C184.574 36.4545 185.552 36.65 186.651 36.65V35.65ZM184.177 35.149C183.505 34.8083 183.003 34.3462 182.655 33.7637L181.797 34.2763C182.249 35.0338 182.898 35.6217 183.725 36.041L184.177 35.149ZM182.657 33.7665C182.308 33.1728 182.126 32.4775 182.126 31.665H181.126C181.126 32.6325 181.344 33.5072 181.795 34.2735L182.657 33.7665ZM182.126 31.665C182.126 30.5629 182.373 29.5771 182.859 28.6967L181.983 28.2133C181.409 29.2529 181.126 30.4071 181.126 31.665H182.126ZM182.857 28.7001C183.351 27.8218 184.044 27.1321 184.946 26.626L184.456 25.754C183.398 26.3479 182.571 27.1682 181.985 28.2099L182.857 28.7001ZM184.949 26.6241C185.845 26.1121 186.878 25.85 188.061 25.85V24.85C186.724 24.85 185.517 25.1478 184.453 25.7559L184.949 26.6241ZM188.061 25.85C189.041 25.85 189.855 26.0289 190.52 26.366L190.972 25.474C190.137 25.0511 189.161 24.85 188.061 24.85V25.85ZM190.527 26.3696C191.205 26.6997 191.709 27.1594 192.055 27.7485L192.917 27.2415C192.464 26.4706 191.807 25.8803 190.965 25.4704L190.527 26.3696ZM192.057 27.7513C192.404 28.3334 192.586 29.0223 192.586 29.835H193.586C193.586 28.8677 193.368 27.9966 192.915 27.2387L192.057 27.7513ZM192.586 29.835C192.586 30.9355 192.335 31.92 191.84 32.7999L192.712 33.2901C193.297 32.25 193.586 31.0945 193.586 29.835H192.586ZM191.838 32.8033C191.354 33.6806 190.666 34.375 189.763 34.8909L190.259 35.7591C191.316 35.155 192.138 34.3294 192.714 33.2867L191.838 32.8033ZM189.766 34.889C188.87 35.3921 187.836 35.65 186.651 35.65V36.65C187.986 36.65 189.192 36.3579 190.256 35.761L189.766 34.889ZM186.816 34.94C187.748 34.94 188.591 34.7197 189.328 34.2658L188.804 33.4142C188.242 33.7603 187.584 33.94 186.816 33.94V34.94ZM189.33 34.2647C190.066 33.8078 190.634 33.1956 191.026 32.4338L190.137 31.9762C189.829 32.5744 189.387 33.0522 188.802 33.4153L189.33 34.2647ZM191.024 32.4363C191.423 31.6719 191.621 30.8421 191.621 29.955H190.621C190.621 30.6879 190.459 31.3581 190.138 31.9737L191.024 32.4363ZM191.621 29.955C191.621 28.9562 191.292 28.1141 190.603 27.4856L189.929 28.2244C190.38 28.6359 190.621 29.1938 190.621 29.955H191.621ZM190.61 27.4919C189.929 26.8478 188.995 26.56 187.881 26.56V27.56C188.827 27.56 189.483 27.8022 189.922 28.2181L190.61 27.4919ZM187.881 26.56C186.947 26.56 186.099 26.7865 185.352 27.2503L185.88 28.0997C186.453 27.7435 187.115 27.56 187.881 27.56V26.56ZM185.354 27.2492C184.624 27.6982 184.061 28.3128 183.67 29.0838L184.562 29.5362C184.871 28.9272 185.308 28.4518 185.878 28.1008L185.354 27.2492ZM183.672 29.0812C183.283 29.8361 183.091 30.6602 183.091 31.545H184.091C184.091 30.8098 184.249 30.1439 184.561 29.5388L183.672 29.0812ZM183.091 31.545C183.091 32.5411 183.413 33.385 184.087 34.0231L184.775 33.2969C184.329 32.875 184.091 32.3089 184.091 31.545H183.091ZM184.091 34.0264C184.772 34.6585 185.705 34.94 186.816 34.94V33.94C185.868 33.94 185.211 33.7015 184.771 33.2936L184.091 34.0264Z" fill="#2D7FFC"/>
</svg>
