<svg width="44" height="62" viewBox="0 0 44 62" fill="none" xmlns="http://www.w3.org/2000/svg">
<path d="M33.25 36V26C33.2496 25.5616 33.1338 25.131 32.9144 24.7515C32.695 24.3719 32.3797 24.0567 32 23.8375L23.25 18.8375C22.87 18.6181 22.4388 18.5026 22 18.5026C21.5612 18.5026 21.13 18.6181 20.75 18.8375L12 23.8375C11.6203 24.0567 11.305 24.3719 11.0856 24.7515C10.8662 25.131 10.7504 25.5616 10.75 26V36C10.7504 36.4384 10.8662 36.869 11.0856 37.2485C11.305 37.6281 11.6203 37.9433 12 38.1625L20.75 43.1625C21.13 43.3819 21.5612 43.4974 22 43.4974C22.4388 43.4974 22.87 43.3819 23.25 43.1625L32 38.1625C32.3797 37.9433 32.695 37.6281 32.9144 37.2485C33.1338 36.869 33.2496 36.4384 33.25 36Z" stroke="#2D7FFC" stroke-width="2" stroke-linecap="round" stroke-linejoin="round"/>
<path d="M11.0874 24.7L21.9999 31.0125L32.9124 24.7" stroke="#2D7FFC" stroke-width="2" stroke-linecap="round" stroke-linejoin="round"/>
<path d="M22 43.6V31" stroke="#2D7FFC" stroke-width="2" stroke-linecap="round" stroke-linejoin="round"/>
</svg>
