<svg width="123" height="123" viewBox="0 0 123 123" fill="none" xmlns="http://www.w3.org/2000/svg">
<g clip-path="url(#clip0_1527_44894)">
<path d="M61.4425 6.04868e-05C75.6625 -0.0040042 89.4438 4.92291 100.438 13.9412C111.433 22.9595 118.96 35.5112 121.737 49.4573C124.514 63.4034 122.369 77.881 115.668 90.423C108.967 102.965 98.1239 112.795 84.9871 118.239C71.8503 123.682 57.2325 124.402 43.6245 120.275C30.0165 116.149 18.2605 107.431 10.3597 95.608C2.45894 83.785 -1.09766 69.5881 0.295975 55.4366C1.68961 41.2851 7.94724 28.0548 18.0025 18.0001C23.6993 12.2843 30.47 7.75151 37.9251 4.66235C45.3803 1.5732 53.3727 -0.0112838 61.4425 6.04868e-05V6.04868e-05Z" fill="#00A3F7"/>
<path fill-rule="evenodd" clip-rule="evenodd" d="M61.442 8.74047C68.363 8.73916 75.2165 10.1014 81.6109 12.7493C88.0054 15.3973 93.8155 19.2791 98.7094 24.173C103.603 29.0669 107.485 34.877 110.133 41.2715C112.781 47.666 114.143 54.5194 114.142 61.4405C114.142 61.7505 114.142 62.0505 114.142 62.3605C113.962 52.3811 110.849 42.6754 105.192 34.4524C99.5353 26.2294 91.5838 19.8526 82.3285 16.1164C73.0732 12.3803 62.9232 11.45 53.1429 13.4413C43.3626 15.4327 34.3844 20.2577 27.3268 27.3153C20.2692 34.3729 15.4442 43.3511 13.4528 53.1314C11.4614 62.9117 12.3918 73.0617 16.1279 82.317C19.8641 91.5723 26.2409 99.5238 34.4639 105.181C42.6869 110.838 52.3926 113.95 62.372 114.13H61.452C47.475 114.13 34.0706 108.578 24.1874 98.695C14.3043 88.8118 8.75195 75.4074 8.75195 61.4305C8.75195 47.4536 14.3043 34.0491 24.1874 24.1659C34.0706 14.2828 47.475 8.73047 61.452 8.73047L61.442 8.74047Z" fill="#005A88"/>
<path fill-rule="evenodd" clip-rule="evenodd" d="M63.2821 12.4102C73.3432 12.4102 83.1784 15.3936 91.544 20.9833C99.9095 26.573 106.43 34.5178 110.28 43.813C114.13 53.1083 115.137 63.3366 113.175 73.2044C111.212 83.0722 106.367 92.1364 99.2526 99.2507C92.1383 106.365 83.0742 111.21 73.2064 113.173C63.3385 115.136 53.1103 114.128 43.815 110.278C34.5197 106.428 26.5749 99.9075 20.9853 91.542C15.3956 83.1765 12.4121 73.3413 12.4121 63.2802C12.4121 49.7886 17.7716 36.8496 27.3116 27.3096C36.8516 17.7697 49.7905 12.4102 63.2821 12.4102V12.4102Z" fill="#0080C2"/>
<path d="M35.166 39.75H50.666C53.4066 39.75 56.0349 40.8387 57.9728 42.7766C59.9107 44.7144 60.9993 47.3428 60.9993 50.0833V86.25C60.9993 84.1946 60.1828 82.2233 58.7294 80.7699C57.276 79.3165 55.3048 78.5 53.2493 78.5H35.166V39.75Z" stroke="#F1F1F1" stroke-width="8" stroke-linecap="round" stroke-linejoin="round"/>
<path d="M86.8333 39.75H71.3333C68.5928 39.75 65.9644 40.8387 64.0266 42.7766C62.0887 44.7144 61 47.3428 61 50.0833V86.25C61 84.1946 61.8165 82.2233 63.2699 80.7699C64.7233 79.3165 66.6946 78.5 68.75 78.5H86.8333V39.75Z" stroke="#F1F1F1" stroke-width="8" stroke-linecap="round" stroke-linejoin="round"/>
</g>
<defs>
<clipPath id="clip0_1527_44894">
<rect width="122.88" height="122.88" fill="white"/>
</clipPath>
</defs>
</svg>
