<svg width="24" height="24" viewBox="0 0 24 24" fill="none" xmlns="http://www.w3.org/2000/svg">
<g clip-path="url(#clip0_27:102)">
<path d="M21.7069 8.24269L24 7.38482L12.15 3.70215L0 7.75227L4.5554 9.27078V16.0782L4.64838 16.2334C4.72111 16.3549 6.49828 19.2067 12.2017 19.2067C17.9981 19.2067 19.1042 16.2402 19.1477 16.1135L19.1837 16.0092V9.18604L20.4014 8.73086V17.245H19.6823V20.2978H22.4268V17.245H21.7084V8.24269H21.7069ZM17.8781 15.758C17.6629 16.1742 16.5074 17.8997 12.2017 17.8997C7.91477 17.8997 6.25008 16.1832 5.8609 15.6898V9.70571L12.1695 11.8091L17.8781 9.67497V15.758ZM12.144 10.4233L4.12948 7.75227L12.1642 5.07443L19.9673 7.49956L12.144 10.4233Z" fill="#515151" stroke="#515151" stroke-width="0.5"/>
</g>
<defs>
<clipPath id="clip0_27:102">
<rect width="24" height="24" fill="white"/>
</clipPath>
</defs>
</svg>
