<svg width="24" height="24" viewBox="0 0 24 24" fill="none" xmlns="http://www.w3.org/2000/svg">
<path d="M15.2448 12.7199C15.3855 12.5793 15.4647 12.3887 15.4648 12.1899V11.8099C15.4625 11.6114 15.3837 11.4216 15.2448 11.2799L10.1048 6.14985C10.011 6.0552 9.88316 6.00195 9.74984 6.00195C9.61652 6.00195 9.48873 6.0552 9.39484 6.14985L8.68484 6.85985C8.59078 6.95202 8.53777 7.07816 8.53777 7.20985C8.53777 7.34154 8.59078 7.46769 8.68484 7.55985L13.1348 11.9999L8.68484 16.4399C8.59019 16.5337 8.53694 16.6615 8.53694 16.7949C8.53694 16.9282 8.59019 17.056 8.68484 17.1499L9.39484 17.8499C9.48873 17.9445 9.61652 17.9978 9.74984 17.9978C9.88316 17.9978 10.011 17.9445 10.1048 17.8499L15.2448 12.7199Z" fill="#BCBCBC"/>
</svg>
