<svg width="24" height="24" viewBox="0 0 24 24" fill="none" xmlns="http://www.w3.org/2000/svg">
<path d="M8.75516 12.7199C8.61446 12.5793 8.53533 12.3887 8.53516 12.1899V11.8099C8.53746 11.6114 8.61627 11.4216 8.75516 11.2799L13.8952 6.14985C13.989 6.0552 14.1168 6.00195 14.2502 6.00195C14.3835 6.00195 14.5113 6.0552 14.6052 6.14985L15.3152 6.85985C15.4092 6.95202 15.4622 7.07816 15.4622 7.20985C15.4622 7.34154 15.4092 7.46769 15.3152 7.55985L10.8652 11.9999L15.3152 16.4399C15.4098 16.5337 15.4631 16.6615 15.4631 16.7949C15.4631 16.9282 15.4098 17.056 15.3152 17.1499L14.6052 17.8499C14.5113 17.9445 14.3835 17.9978 14.2502 17.9978C14.1168 17.9978 13.989 17.9445 13.8952 17.8499L8.75516 12.7199Z" fill="#BCBCBC"/>
</svg>
