<svg width="24" height="24" viewBox="0 0 24 24" fill="none" xmlns="http://www.w3.org/2000/svg">
<path d="M19.5956 3.88235L20 3.66667V21H17H6C4.89543 21 4 20.1046 4 19V17H6H7V16V12V3.66667L7.40441 3.88235L7.875 4.13333L8.34559 3.88235L9.75 3.13333L11.1544 3.88235L11.625 4.13333L12.0956 3.88235L13.5 3.13333L14.9044 3.88235L15.375 4.13333L15.8456 3.88235L17.25 3.13333L18.6544 3.88235L19.125 4.13333L19.5956 3.88235Z" stroke="#AAAAAA" stroke-width="2"/>
<path d="M13 7V14" stroke="#AAAAAA" stroke-linecap="round" stroke-linejoin="round"/>
<path d="M14.6667 8H12.1667C11.8572 8 11.5605 8.1317 11.3417 8.36612C11.1229 8.60054 11 8.91848 11 9.25C11 9.58152 11.1229 9.89946 11.3417 10.1339C11.5605 10.3683 11.8572 10.5 12.1667 10.5H13.8333C14.1428 10.5 14.4395 10.6317 14.6583 10.8661C14.8771 11.1005 15 11.4185 15 11.75C15 12.0815 14.8771 12.3995 14.6583 12.6339C14.4395 12.8683 14.1428 13 13.8333 13H11" stroke="#AAAAAA" stroke-linecap="round" stroke-linejoin="round"/>
<path d="M4 17H16V21H6C4.89543 21 4 20.1046 4 19V17Z" stroke="#AAAAAA" stroke-width="2"/>
</svg>
