<svg width="24" height="24" viewBox="0 0 24 24" fill="none" xmlns="http://www.w3.org/2000/svg">
<path d="M18.2227 6.69531L15.3047 3.74219C14.9883 3.42578 14.5312 3.25 14.1094 3.25H6.9375C5.98828 3.25 5.25 4.02344 5.25 4.9375V19.5625C5.25 20.5117 5.98828 21.25 6.9375 21.25H17.0625C17.9766 21.25 18.75 20.5117 18.75 19.5625V7.89062C18.75 7.46875 18.5391 7.01172 18.2227 6.69531ZM16.9219 7.75H14.25V5.07812L16.9219 7.75ZM6.9375 19.5625V4.9375H12.5625V8.59375C12.5625 9.08594 12.9141 9.4375 13.4062 9.4375H17.0625V19.5625H6.9375ZM14.6719 12.25C14.4609 12.25 14.2852 12.3906 14.25 12.6016C13.5117 16.0469 13.5469 15.9414 13.5117 16.2227C13.5117 16.1875 13.5117 16.1523 13.4766 16.082C13.4414 15.9062 13.5117 16.082 12.668 12.6016C12.5977 12.3906 12.457 12.25 12.2461 12.25H11.7891C11.5781 12.25 11.4023 12.3906 11.3672 12.6016C10.5234 16.082 10.5234 15.9766 10.4883 16.2227C10.4883 16.1875 10.4883 16.1523 10.4883 16.082C10.4531 15.9062 9.99609 13.5156 9.82031 12.6016C9.75 12.3906 9.60938 12.25 9.39844 12.25H8.80078C8.51953 12.25 8.30859 12.5312 8.37891 12.7773C8.66016 13.9375 9.32812 16.6445 9.53906 17.5586C9.60938 17.7695 9.78516 17.875 9.96094 17.875H10.8398C11.0508 17.875 11.2266 17.7695 11.2617 17.5586L11.8945 15.0625C11.9297 14.8516 11.9648 14.6406 12 14.4297L12.1055 15.0625C12.1055 15.0625 12.5273 16.8203 12.7383 17.5586C12.7734 17.7344 12.9492 17.875 13.125 17.875H14.0039C14.1797 17.875 14.3555 17.7695 14.4258 17.5586C15.1289 14.6758 15.4805 13.375 15.6211 12.7773C15.6914 12.5312 15.4805 12.25 15.1992 12.25H14.6719Z" fill="#00CEC3"/>
</svg>
