<svg width="24" height="24" viewBox="0 0 24 24" fill="none" xmlns="http://www.w3.org/2000/svg">
<path d="M11.166 5.3335H5.33268C4.89065 5.3335 4.46673 5.50909 4.15417 5.82165C3.84161 6.13421 3.66602 6.55814 3.66602 7.00016V18.6668C3.66602 19.1089 3.84161 19.5328 4.15417 19.8453C4.46673 20.1579 4.89065 20.3335 5.33268 20.3335H16.9993C17.4414 20.3335 17.8653 20.1579 18.1779 19.8453C18.4904 19.5328 18.666 19.1089 18.666 18.6668V12.8335" stroke="#1A97F5" stroke-width="2" stroke-linecap="round" stroke-linejoin="round"/>
<path d="M17.416 4.0832C17.7475 3.75168 18.1972 3.56543 18.666 3.56543C19.1349 3.56543 19.5845 3.75168 19.916 4.0832C20.2475 4.41472 20.4338 4.86436 20.4338 5.3332C20.4338 5.80204 20.2475 6.25168 19.916 6.5832L11.9993 14.4999L8.66602 15.3332L9.49935 11.9999L17.416 4.0832Z" stroke="#1A97F5" stroke-width="2" stroke-linecap="round" stroke-linejoin="round"/>
</svg>
