<svg width="24" height="24" viewBox="0 0 24 24" fill="none" xmlns="http://www.w3.org/2000/svg">
<path d="M18.2227 6.69531L15.3047 3.74219C14.9883 3.42578 14.5312 3.25 14.1094 3.25H6.9375C5.98828 3.25 5.25 4.02344 5.25 4.9375V19.5625C5.25 20.5117 5.98828 21.25 6.9375 21.25H17.0625C17.9766 21.25 18.75 20.5117 18.75 19.5625V7.89062C18.75 7.46875 18.5391 7.01172 18.2227 6.69531ZM16.9219 7.75H14.25V5.07812L16.9219 7.75ZM6.9375 19.5625V4.9375H12.5625V8.59375C12.5625 9.08594 12.9141 9.4375 13.4062 9.4375H17.0625V19.5625H6.9375ZM14.3906 11.125H13.3711C13.1953 11.125 13.0547 11.2305 12.9844 11.3711C12.3516 12.5312 12.2109 12.8477 12 13.375C11.5078 12.3555 11.7539 12.7773 10.9805 11.3711C10.9102 11.2305 10.7695 11.125 10.5938 11.125H9.60938C9.25781 11.125 9.08203 11.4766 9.22266 11.7578L10.8398 14.5L9.22266 17.2422C9.04688 17.5234 9.25781 17.875 9.60938 17.875H10.5938C10.7695 17.875 10.9102 17.8047 10.9805 17.6641C11.7539 16.2578 11.7891 16.082 12 15.625C12.4922 16.7148 12.1758 16.1875 12.9844 17.6641C13.0547 17.8047 13.1953 17.875 13.3711 17.875H14.3906C14.707 17.875 14.918 17.5234 14.7422 17.2422L13.125 14.5C13.125 14.4648 14.1797 12.7422 14.7422 11.7578C14.918 11.4766 14.707 11.125 14.3906 11.125Z" fill="#00CEC3"/>
</svg>
