<svg width="24" height="24" viewBox="0 0 24 24" fill="none" xmlns="http://www.w3.org/2000/svg">
<path d="M19 4H5C3.89543 4 3 4.89543 3 6V20C3 21.1046 3.89543 22 5 22H19C20.1046 22 21 21.1046 21 20V6C21 4.89543 20.1046 4 19 4Z" stroke="white" stroke-width="2" stroke-linecap="round" stroke-linejoin="round"/>
<path d="M16 2V6" stroke="white" stroke-width="2" stroke-linecap="round" stroke-linejoin="round"/>
<path d="M8 2V6" stroke="white" stroke-width="2" stroke-linecap="round" stroke-linejoin="round"/>
<path d="M3 10H21" stroke="white" stroke-width="2" stroke-linecap="round" stroke-linejoin="round"/>
<mask id="path-5-inside-1_1090_44924" fill="white">
<path d="M14 13H12V15H14V13Z"/>
</mask>
<path d="M12 13V11H10V13H12ZM14 13H16V11H14V13ZM14 15V17H16V15H14ZM12 15H10V17H12V15ZM12 15H14V11H12V15ZM12 13V15H16V13H12ZM14 13H12V17H14V13ZM14 15V13H10V15H14Z" fill="white" mask="url(#path-5-inside-1_1090_44924)"/>
<mask id="path-7-inside-2_1090_44924" fill="white">
<path d="M10 13H6V15H10V13Z"/>
</mask>
<path d="M6 13V11H4V13H6ZM10 13H12V11H10V13ZM10 15V17H12V15H10ZM6 15H4V17H6V15ZM6 15H10V11H6V15ZM8 13V15H12V13H8ZM10 13H6V17H10V13ZM8 15V13H4V15H8Z" fill="white" mask="url(#path-7-inside-2_1090_44924)"/>
<mask id="path-9-inside-3_1090_44924" fill="white">
<path d="M18 13H16V15H18V13Z"/>
</mask>
<path d="M16 13V11H14V13H16ZM18 13H20V11H18V13ZM18 15V17H20V15H18ZM16 15H14V17H16V15ZM16 15H18V11H16V15ZM16 13V15H20V13H16ZM18 13H16V17H18V13ZM18 15V13H14V15H18Z" fill="white" mask="url(#path-9-inside-3_1090_44924)"/>
<mask id="path-11-inside-4_1090_44924" fill="white">
<path d="M14 17H12V19H14V17Z"/>
</mask>
<path d="M12 17V15H10V17H12ZM14 17H16V15H14V17ZM14 19V21H16V19H14ZM12 19H10V21H12V19ZM12 19H14V15H12V19ZM12 17V19H16V17H12ZM14 17H12V21H14V17ZM14 19V17H10V19H14Z" fill="white" mask="url(#path-11-inside-4_1090_44924)"/>
<mask id="path-13-inside-5_1090_44924" fill="white">
<path d="M10 17H6V19H10V17Z"/>
</mask>
<path d="M6 17V15H4V17H6ZM10 17H12V15H10V17ZM10 19V21H12V19H10ZM6 19H4V21H6V19ZM6 19H10V15H6V19ZM8 17V19H12V17H8ZM10 17H6V21H10V17ZM8 19V17H4V19H8Z" fill="white" mask="url(#path-13-inside-5_1090_44924)"/>
<mask id="path-15-inside-6_1090_44924" fill="white">
<path d="M18 17H16V19H18V17Z"/>
</mask>
<path d="M16 17V15H14V17H16ZM18 17H20V15H18V17ZM18 19V21H20V19H18ZM16 19H14V21H16V19ZM16 19H18V15H16V19ZM16 17V19H20V17H16ZM18 17H16V21H18V17ZM18 19V17H14V19H18Z" fill="white" mask="url(#path-15-inside-6_1090_44924)"/>
</svg>
