<svg width="24" height="24" viewBox="0 0 24 24" fill="none" xmlns="http://www.w3.org/2000/svg">
<path d="M1 21V19C1 17.9391 1.42143 16.9217 2.17157 16.1716C2.92172 15.4214 3.93913 15 5 15H7.5" stroke="#515151" stroke-width="2" stroke-linecap="round" stroke-linejoin="round"/>
<path d="M8.5 11C10.7091 11 12.5 9.20914 12.5 7C12.5 4.79086 10.7091 3 8.5 3C6.29086 3 4.5 4.79086 4.5 7C4.5 9.20914 6.29086 11 8.5 11Z" stroke="#515151" stroke-width="2" stroke-linecap="round" stroke-linejoin="round"/>
<path d="M16.5723 14.875C17.4697 14.875 18.1973 15.6025 18.1973 16.5C18.1973 17.3975 17.4697 18.125 16.5723 18.125C15.6748 18.125 14.9473 17.3975 14.9473 16.5C14.9473 15.6025 15.6748 14.875 16.5723 14.875Z" stroke="#515151" stroke-width="1.5" stroke-linecap="round" stroke-linejoin="round"/>
<path d="M20.5799 14.8747C20.5078 14.7113 20.4863 14.5301 20.5182 14.3544C20.5501 14.1786 20.6338 14.0165 20.7587 13.8888L20.7912 13.8563C20.8919 13.7557 20.9718 13.6362 21.0263 13.5047C21.0809 13.3732 21.1089 13.2323 21.1089 13.0899C21.1089 12.9475 21.0809 12.8065 21.0263 12.675C20.9718 12.5435 20.8919 12.424 20.7912 12.3234C20.6906 12.2227 20.5711 12.1428 20.4396 12.0883C20.3081 12.0338 20.1671 12.0057 20.0247 12.0057C19.8824 12.0057 19.7414 12.0338 19.6099 12.0883C19.4784 12.1428 19.3589 12.2227 19.2583 12.3234L19.2258 12.3559C19.0981 12.4808 18.936 12.5646 18.7603 12.5964C18.5846 12.6283 18.4033 12.6068 18.2399 12.5347C18.0797 12.466 17.9431 12.352 17.8469 12.2067C17.7506 12.0614 17.699 11.8911 17.6983 11.7168V11.6247C17.6983 11.3374 17.5841 11.0618 17.381 10.8586C17.1778 10.6555 16.9023 10.5413 16.6149 10.5413C16.3276 10.5413 16.0521 10.6555 15.8489 10.8586C15.6458 11.0618 15.5316 11.3374 15.5316 11.6247V11.6734C15.5274 11.8527 15.4694 12.0266 15.3651 12.1725C15.2607 12.3183 15.1149 12.4294 14.9466 12.4913C14.7832 12.5634 14.602 12.585 14.4263 12.5531C14.2506 12.5212 14.0884 12.4375 13.9608 12.3126L13.9283 12.2801C13.8277 12.1794 13.7082 12.0995 13.5767 12.0449C13.4452 11.9904 13.3042 11.9624 13.1618 11.9624C13.0195 11.9624 12.8785 11.9904 12.747 12.0449C12.6155 12.0995 12.496 12.1794 12.3954 12.2801C12.2946 12.3807 12.2147 12.5002 12.1602 12.6317C12.1057 12.7632 12.0776 12.9042 12.0776 13.0466C12.0776 13.1889 12.1057 13.3299 12.1602 13.4614C12.2147 13.5929 12.2946 13.7124 12.3954 13.813L12.4279 13.8455C12.5527 13.9732 12.6365 14.1353 12.6684 14.311C12.7002 14.4867 12.6787 14.668 12.6066 14.8313C12.538 14.9916 12.4239 15.1282 12.2786 15.2244C12.1333 15.3207 11.963 15.3723 11.7887 15.373H11.6966C11.4093 15.373 11.1337 15.4871 10.9306 15.6903C10.7274 15.8935 10.6133 16.169 10.6133 16.4563C10.6133 16.7437 10.7274 17.0192 10.9306 17.2224C11.1337 17.4255 11.4093 17.5397 11.6966 17.5397H11.7454C11.9247 17.5439 12.0985 17.6019 12.2444 17.7062C12.3903 17.8106 12.5014 17.9564 12.5633 18.1247C12.6354 18.2881 12.6569 18.4693 12.625 18.645C12.5932 18.8207 12.5094 18.9828 12.3845 19.1105L12.352 19.143C12.2513 19.2436 12.1714 19.3631 12.1169 19.4946C12.0624 19.6261 12.0343 19.7671 12.0343 19.9095C12.0343 20.0518 12.0624 20.1928 12.1169 20.3243C12.1714 20.4558 12.2513 20.5753 12.352 20.6759C12.4526 20.7766 12.5721 20.8566 12.7036 20.9111C12.8352 20.9656 12.9761 20.9937 13.1185 20.9937C13.2609 20.9937 13.4018 20.9656 13.5333 20.9111C13.6649 20.8566 13.7843 20.7766 13.8849 20.6759L13.9174 20.6434C14.0451 20.5186 14.2072 20.4348 14.383 20.4029C14.5587 20.3711 14.7399 20.3926 14.9033 20.4647H14.9466C15.1068 20.5333 15.2435 20.6473 15.3397 20.7927C15.4359 20.938 15.4876 21.1083 15.4883 21.2826V21.3747C15.4883 21.662 15.6024 21.9375 15.8056 22.1407C16.0087 22.3439 16.2843 22.458 16.5716 22.458C16.8589 22.458 17.1345 22.3439 17.3376 22.1407C17.5408 21.9375 17.6549 21.662 17.6549 21.3747V21.3259C17.6556 21.1516 17.7073 20.9813 17.8035 20.836C17.8998 20.6907 18.0364 20.5767 18.1966 20.508C18.36 20.4359 18.5412 20.4144 18.7169 20.4463C18.8926 20.4781 19.0548 20.5619 19.1824 20.6868L19.2149 20.7193C19.3156 20.82 19.435 20.8999 19.5666 20.9544C19.6981 21.0089 19.839 21.037 19.9814 21.037C20.1238 21.037 20.2647 21.0089 20.3963 20.9544C20.5278 20.8999 20.6472 20.82 20.7479 20.7193C20.8486 20.6186 20.9285 20.4992 20.983 20.3677C21.0375 20.2361 21.0656 20.0952 21.0656 19.9528C21.0656 19.8104 21.0375 19.6695 20.983 19.5379C20.9285 19.4064 20.8486 19.287 20.7479 19.1863L20.7154 19.1538C20.5905 19.0262 20.5067 18.864 20.4749 18.6883C20.443 18.5126 20.4645 18.3314 20.5366 18.168V18.1247C20.6053 17.9645 20.7193 17.8278 20.8646 17.7316C21.0099 17.6354 21.1802 17.5837 21.3545 17.583H21.4466C21.7339 17.583 22.0095 17.4689 22.2126 17.2657C22.4158 17.0625 22.5299 16.787 22.5299 16.4997C22.5299 16.2124 22.4158 15.9368 22.2126 15.7336C22.0095 15.5305 21.7339 15.4163 21.4466 15.4163H21.3979C21.2236 15.4156 21.0533 15.364 20.9079 15.2678C20.7626 15.1715 20.6486 15.0349 20.5799 14.8747V14.8747Z" stroke="#515151" stroke-width="1.5" stroke-linecap="round" stroke-linejoin="round"/>
</svg>
