<svg width="24" height="24" viewBox="0 0 24 24" fill="none" xmlns="http://www.w3.org/2000/svg">
<path d="M18.6667 9.5H11.1667C10.2462 9.5 9.5 10.2462 9.5 11.1667V18.6667C9.5 19.5871 10.2462 20.3333 11.1667 20.3333H18.6667C19.5871 20.3333 20.3333 19.5871 20.3333 18.6667V11.1667C20.3333 10.2462 19.5871 9.5 18.6667 9.5Z" stroke="#1A97F5" stroke-width="2" stroke-linecap="round" stroke-linejoin="round"/>
<path d="M6.16602 14.4998H5.33268C4.89065 14.4998 4.46673 14.3242 4.15417 14.0117C3.84161 13.6991 3.66602 13.2752 3.66602 12.8332V5.33317C3.66602 4.89114 3.84161 4.46722 4.15417 4.15466C4.46673 3.8421 4.89065 3.6665 5.33268 3.6665H12.8327C13.2747 3.6665 13.6986 3.8421 14.0112 4.15466C14.3238 4.46722 14.4993 4.89114 14.4993 5.33317V6.1665" stroke="#1A97F5" stroke-width="2" stroke-linecap="round" stroke-linejoin="round"/>
</svg>
