<svg width="24" height="24" viewBox="0 0 24 24" fill="none" xmlns="http://www.w3.org/2000/svg">
<path fill-rule="evenodd" clip-rule="evenodd" d="M6.68293 4L2 17H4.45122L5.4939 13.9914H10.4878L10.718 14.6675L12.482 12.7859L9.31707 4H6.68293ZM9.84756 12.1343H6.13415L7.98171 6.73L9.84756 12.1343Z" fill="#515151"/>
<path d="M2 17L1.52959 16.8305C1.4744 16.9837 1.49728 17.1542 1.5909 17.2875C1.68452 17.4207 1.83716 17.5 2 17.5V17ZM6.68293 4V3.5C6.47212 3.5 6.28396 3.63222 6.21252 3.83055L6.68293 4ZM4.45122 17V17.5C4.66425 17.5 4.85389 17.365 4.92365 17.1637L4.45122 17ZM5.4939 13.9914V13.4914C5.28087 13.4914 5.09123 13.6264 5.02147 13.8277L5.4939 13.9914ZM10.4878 13.9914L10.9611 13.8303C10.8921 13.6277 10.7018 13.4914 10.4878 13.4914V13.9914ZM10.718 14.6675L10.2447 14.8286C10.3013 14.9948 10.4409 15.1192 10.6125 15.1562C10.7842 15.1933 10.9627 15.1375 11.0828 15.0094L10.718 14.6675ZM12.482 12.7859L12.8467 13.1279C12.9753 12.9908 13.0161 12.7933 12.9524 12.6165L12.482 12.7859ZM9.31707 4L9.78748 3.83055C9.71604 3.63222 9.52788 3.5 9.31707 3.5V4ZM6.13415 12.1343L5.66103 11.9725C5.60882 12.1253 5.63354 12.2938 5.72741 12.4251C5.82128 12.5564 5.97275 12.6343 6.13415 12.6343V12.1343ZM9.84756 12.1343V12.6343C10.0092 12.6343 10.1609 12.5561 10.2547 12.4245C10.3486 12.2928 10.3729 12.1239 10.3202 11.9711L9.84756 12.1343ZM7.98171 6.73L8.45433 6.56682C8.38465 6.36499 8.19448 6.22968 7.98095 6.23C7.76742 6.23032 7.57767 6.36621 7.50859 6.56826L7.98171 6.73ZM2.47041 17.1695L7.15334 4.16945L6.21252 3.83055L1.52959 16.8305L2.47041 17.1695ZM4.45122 16.5H2V17.5H4.45122V16.5ZM5.02147 13.8277L3.97879 16.8363L4.92365 17.1637L5.96633 14.1552L5.02147 13.8277ZM10.4878 13.4914H5.4939V14.4914H10.4878V13.4914ZM11.1913 14.5063L10.9611 13.8303L10.0145 14.1526L10.2447 14.8286L11.1913 14.5063ZM11.0828 15.0094L12.8467 13.1279L12.1172 12.444L10.3532 14.3255L11.0828 15.0094ZM8.84666 4.16945L12.0116 12.9554L12.9524 12.6165L9.78748 3.83055L8.84666 4.16945ZM6.68293 4.5H9.31707V3.5H6.68293V4.5ZM6.13415 12.6343H9.84756V11.6343H6.13415V12.6343ZM7.50859 6.56826L5.66103 11.9725L6.60726 12.296L8.45482 6.89174L7.50859 6.56826ZM10.3202 11.9711L8.45433 6.56682L7.50908 6.89318L9.37494 12.2975L10.3202 11.9711Z" fill="#515151"/>
<path d="M18.4356 10.44C18.7173 10.1583 19.0994 10 19.4978 10C19.8962 10 20.2783 10.1583 20.56 10.44C20.8417 10.7217 21 11.1038 21 11.5022C21 11.9006 20.8417 12.2827 20.56 12.5644L13.8326 19.2919L11 20L11.7081 17.1674L18.4356 10.44Z" stroke="#515151" stroke-width="2" stroke-linecap="round" stroke-linejoin="round"/>
</svg>
