<svg width="24" height="24" viewBox="0 0 24 24" fill="none" xmlns="http://www.w3.org/2000/svg">
<path d="M16 2V6" stroke="white" stroke-width="2" stroke-linecap="round" stroke-linejoin="round"/>
<path d="M8 2V6" stroke="white" stroke-width="2" stroke-linecap="round" stroke-linejoin="round"/>
<path fill-rule="evenodd" clip-rule="evenodd" d="M5 5C4.44772 5 4 5.44772 4 6V9H20V6C20 5.44772 19.5523 5 19 5H5ZM2 6V10V20C2 21.6569 3.34315 23 5 23H11.7546C11.2724 22.3984 10.8753 21.7257 10.5815 21H5C4.44772 21 4 20.5523 4 20V11H14.124C15.2722 10.3628 16.5937 10 18 10C19.4571 10 20.8233 10.3896 22 11.0703V10V6C22 4.34315 20.6569 3 19 3H5C3.34315 3 2 4.34315 2 6Z" fill="white"/>
<path fill-rule="evenodd" clip-rule="evenodd" d="M14 18C14 15.7909 15.7909 14 18 14C20.2091 14 22 15.7909 22 18C22 20.2091 20.2091 22 18 22C15.7909 22 14 20.2091 14 18ZM18 12C14.6863 12 12 14.6863 12 18C12 21.3137 14.6863 24 18 24C21.3137 24 24 21.3137 24 18C24 14.6863 21.3137 12 18 12ZM18.5 16C18.5 15.7239 18.2761 15.5 18 15.5C17.7239 15.5 17.5 15.7239 17.5 16V19C17.5 19.1894 17.607 19.3625 17.7764 19.4472L19.7764 20.4472C20.0234 20.5707 20.3237 20.4706 20.4472 20.2236C20.5707 19.9766 20.4706 19.6763 20.2236 19.5528L18.5 18.691V16Z" fill="white"/>
</svg>
