<svg width="123" height="123" viewBox="0 0 123 123" fill="none" xmlns="http://www.w3.org/2000/svg">
<g clip-path="url(#clip0_1527_44902)">
<path d="M61.4406 6.04868e-05C75.6605 -0.0040042 89.4419 4.92291 100.436 13.9412C111.431 22.9595 118.958 35.5112 121.735 49.4573C124.512 63.4034 122.367 77.881 115.666 90.423C108.965 102.965 98.122 112.795 84.9852 118.239C71.8484 123.682 57.2305 124.402 43.6225 120.275C30.0145 116.149 18.2585 107.431 10.3577 95.608C2.45698 83.785 -1.09961 69.5881 0.294022 55.4366C1.68766 41.2851 7.94529 28.0548 18.0006 18.0001C23.6973 12.2843 30.468 7.75151 37.9232 4.66235C45.3783 1.5732 53.3708 -0.0112838 61.4406 6.04868e-05V6.04868e-05Z" fill="#F88000"/>
<path fill-rule="evenodd" clip-rule="evenodd" d="M61.44 8.74047C68.361 8.73916 75.2145 10.1014 81.609 12.7493C88.0034 15.3973 93.8135 19.2791 98.7075 24.173C103.601 29.0669 107.483 34.877 110.131 41.2715C112.779 47.666 114.141 54.5194 114.14 61.4405C114.14 61.7505 114.14 62.0505 114.14 62.3605C113.96 52.3811 110.847 42.6754 105.19 34.4524C99.5333 26.2294 91.5819 19.8526 82.3266 16.1164C73.0713 12.3803 62.9212 11.45 53.1409 13.4413C43.3606 15.4327 34.3824 20.2577 27.3248 27.3153C20.2672 34.3729 15.4422 43.3511 13.4508 53.1314C11.4595 62.9117 12.3898 73.0617 16.126 82.317C19.8621 91.5723 26.2389 99.5238 34.4619 105.181C42.6849 110.838 52.3907 113.95 62.37 114.13H61.45C47.4731 114.13 34.0686 108.578 24.1855 98.695C14.3023 88.8118 8.75 75.4074 8.75 61.4305C8.75 47.4536 14.3023 34.0491 24.1855 24.1659C34.0686 14.2828 47.4731 8.73047 61.45 8.73047L61.44 8.74047Z" fill="#884600"/>
<path fill-rule="evenodd" clip-rule="evenodd" d="M63.2802 12.4102C73.3413 12.4102 83.1765 15.3936 91.542 20.9833C99.9075 26.573 106.428 34.5178 110.278 43.813C114.128 53.1083 115.136 63.3366 113.173 73.2044C111.21 83.0722 106.365 92.1364 99.2507 99.2507C92.1364 106.365 83.0722 111.21 73.2044 113.173C63.3366 115.136 53.1083 114.128 43.813 110.278C34.5178 106.428 26.573 99.9075 20.9833 91.542C15.3936 83.1765 12.4102 73.3413 12.4102 63.2802C12.4102 49.7886 17.7697 36.8496 27.3096 27.3096C36.8496 17.7697 49.7886 12.4102 63.2802 12.4102V12.4102Z" fill="#CA6800"/>
<path d="M35.166 39.75H50.666C53.4066 39.75 56.0349 40.8387 57.9728 42.7766C59.9107 44.7144 60.9993 47.3428 60.9993 50.0833V86.25C60.9993 84.1946 60.1828 82.2233 58.7294 80.7699C57.276 79.3165 55.3048 78.5 53.2493 78.5H35.166V39.75Z" stroke="#F1F1F1" stroke-width="8" stroke-linecap="round" stroke-linejoin="round"/>
<path d="M86.8333 39.75H71.3333C68.5928 39.75 65.9644 40.8387 64.0266 42.7766C62.0887 44.7144 61 47.3428 61 50.0833V86.25C61 84.1946 61.8165 82.2233 63.2699 80.7699C64.7233 79.3165 66.6946 78.5 68.75 78.5H86.8333V39.75Z" stroke="#F1F1F1" stroke-width="8" stroke-linecap="round" stroke-linejoin="round"/>
</g>
<defs>
<clipPath id="clip0_1527_44902">
<rect width="122.88" height="122.88" fill="white"/>
</clipPath>
</defs>
</svg>
